<svg id="Layer_1" data-name="Layer 1" xmlns="http://www.w3.org/2000/svg" width="892" height="667" viewBox="0 0 892 667"><defs><style>.cls-1{fill:#b3b3b3;opacity:0.58;}.cls-2{fill:#fbbb00;}.cls-3,.cls-4{fill:#fff;}.cls-3,.cls-5{stroke:#000;stroke-miterlimit:10;}.cls-5{fill:none;stroke-width:3px;}</style></defs><title>angry bee</title><circle cx="19.5" cy="173.5" r="14.5"/><ellipse class="cls-1" cx="548.95" cy="204.62" rx="183.99" ry="91.74" transform="translate(97.27 577.72) rotate(-60)"/><ellipse class="cls-1" cx="403.68" cy="187.52" rx="93.7" ry="176.3" transform="translate(-38.95 140.65) rotate(-18.87)"/><path d="M700,334H171v1.12A130.49,130.49,0,0,0,154,334C85,334,29,388.17,29,455S85,576,154,576a130.49,130.49,0,0,0,17-1.12V576H700c69,0,125-54.17,125-121S769,334,700,334Z"/><rect class="cls-2" x="439" y="334" width="71" height="242" rx="12"/><rect class="cls-2" x="532" y="334" width="88" height="242" rx="12"/><rect class="cls-2" x="643" y="334" width="43" height="242" rx="12"/><polyline points="728.31 428.32 809.94 484.77 891.57 541.23 725.88 537.54"/><rect class="cls-2" x="718" y="337" width="16" height="232" rx="8"/><circle class="cls-3" cx="105.31" cy="404.07" r="37.2"/><path d="M72.46,382.26c6.66-15.23,27.33-20.9,46.14-12.67s28.67,27.27,22,42.51"/><circle class="cls-3" cx="184.8" cy="408.08" r="37.2"/><path d="M145.9,414.59c-5.53-15.68,5.69-33.94,25.07-40.77s39.56.34,45.09,16"/><path d="M119.58,399.87a9.3,9.3,0,0,1-16.25-9"/><path d="M187.88,397.89a9.3,9.3,0,1,1-18,4.67"/><path class="cls-4" d="M186.85,491.87c1.08,5.21,5.65,8.95-4,11.69-8,2.7-27.89,5.39-44.4,3.88-14.15-1.8-21.52-6.45-32-10-9.06-3.75-21.46-6.66-12.8-10,8.81-3.05,10.42-7,16.92-10.07,5.63-3.12,17.1-4.76,25.64-4.56,4.49-.33,6.39.83,19.3,4.83C166.82,481.57,186.54,487,186.85,491.87Z"/><path d="M264.68,667.25l-1.36-.5c-4.61-1.67-7.75-8.15-7.16-14.37,2.69-35.16,1.54-70-6.48-103.38-1.71-5.84,4-13.24,13-16.52l2.64-1c9-3.28,14.57,0,12.71,7.32-8.82,40.32-10,80.44-6.48,118.94C272.28,664.7,269.29,668.92,264.68,667.25Z"/><path d="M316.68,667.25l-1.36-.5c-4.61-1.67-7.75-8.15-7.16-14.37,2.69-35.16,1.54-70-6.48-103.38-1.72-5.84,4-13.24,13-16.52l2.64-1c9-3.28,14.57,0,12.71,7.32-8.82,40.32-10,80.44-6.48,118.94C324.28,664.7,321.29,668.92,316.68,667.25Z"/><path d="M373.68,667.25l-1.36-.5c-4.61-1.67-7.75-8.15-7.16-14.37,2.69-35.16,1.54-70-6.48-103.38-1.72-5.84,4-13.24,13-16.52l2.64-1c9-3.28,14.57,0,12.71,7.32-8.82,40.32-10,80.44-6.48,118.94C381.28,664.7,378.29,668.92,373.68,667.25Z"/><path d="M417.68,667.25l-1.36-.5c-4.61-1.67-7.75-8.15-7.16-14.37,2.69-35.16,1.54-70-6.48-103.38-1.72-5.84,4-13.24,13-16.52l2.64-1c9-3.28,14.57,0,12.71,7.32-8.82,40.32-10,80.44-6.48,118.94C425.28,664.7,422.3,668.92,417.68,667.25Z"/><path class="cls-5" d="M78,162c28.5-102.5,92,80.59,92,180"/><path class="cls-5" d="M19,174c28.5-102.5,92,80.59,92,180"/><circle cx="77.5" cy="163.5" r="14.5"/></svg>