<svg id="Layer_1" data-name="Layer 1" xmlns="http://www.w3.org/2000/svg" xmlns:xlink="http://www.w3.org/1999/xlink" width="245" height="210" viewBox="0 0 245 210"><defs><style>.cls-1{opacity:0.75;}.cls-2{opacity:0.55;}.cls-3{fill:#00a99d;}.cls-4{fill:#998675;}.cls-5{fill:#c69c6d;}.cls-6{fill:#fff;}.cls-7{fill:#ff7bac;}.cls-8{fill:#534741;}.cls-9{fill:#736357;}.cls-10{fill:#93628f;}.cls-11{fill:none;stroke:#998675;stroke-miterlimit:10;stroke-width:4px;}.cls-12{fill:#42210b;}</style></defs><title>butterfly blue</title><image class="cls-1" width="319" height="277" transform="translate(-30 -23.1)" xlink:href="butterfly%20blue1.png"/><g class="cls-2"><path class="cls-3" d="M243.12,110.79c-4.08-8.9-13.67-19.87-25.82-24.06-12.2-4.55-27-2.32-42.63,6.72a156.17,156.17,0,0,0-15.77,10.23,91.67,91.67,0,0,0,3.26-32.78,87.19,87.19,0,0,0-14-41.3c-7.14-10.55-15.74-18.89-25.55-18S103.19,23.31,94.75,34.88C86.41,47,79.23,60,76.62,78.48s.28,38.06,7.93,49.82c7.55,12.21,19.85,16.65,33.66,15.43,1.24-.14,2.48-.34,3.7-.59a8.7,8.7,0,0,0,.36,3.3c3.53,11.19,38.43,18.74,74.19,8.05,17.76-5.94,31.75-14.87,39.95-21.7C244.67,125.47,247.15,120.25,243.12,110.79Z"/></g><path class="cls-3" d="M220.69,105.21c-4.08-8.9-13.67-19.87-25.82-24-12.2-4.56-27-2.33-42.63,6.72a154.45,154.45,0,0,0-15.77,10.23,91.92,91.92,0,0,0,3.26-32.78,87.12,87.12,0,0,0-14-41.3c-7.14-10.56-15.74-18.89-25.55-18S80.75,17.73,72.32,29.3C64,41.45,56.8,54.38,54.19,72.9s.28,38.06,7.93,49.82c7.54,12.22,19.84,16.65,33.65,15.43,1.25-.14,2.48-.34,3.7-.58a8.65,8.65,0,0,0,.37,3.29c3.53,11.19,38.43,18.74,74.19,8A127.53,127.53,0,0,0,214,127.21C222.24,119.89,224.72,114.67,220.69,105.21Z"/><path class="cls-4" d="M175.36,168.29,37,97a15.75,15.75,0,1,0-14,27.35L161,195.47a15.75,15.75,0,1,0,14.37-27.18Z"/><path class="cls-5" d="M89.33,141.22c-1.1,10.19-5.77,13.81-7.91,9.22s-1.21-6.91.87-12.37c2.25-5.79,4.9-15.84,6.13-15.17S90.43,131.72,89.33,141.22Z"/><path class="cls-5" d="M104.68,149c-1.1,10.19-5.76,13.82-7.91,9.23s-1.21-6.91.87-12.38c2.25-5.78,4.9-15.84,6.13-15.16S105.78,139.46,104.68,149Z"/><path class="cls-5" d="M120.28,156.77c-1.1,10.19-5.77,13.81-7.91,9.22s-1.21-6.91.87-12.37c2.25-5.79,4.9-15.84,6.13-15.17S121.37,147.27,120.28,156.77Z"/><rect class="cls-6" x="23.11" y="98.52" width="1.02" height="19.05" transform="translate(-86.93 104.89) rotate(-76.04)"/><path class="cls-6" d="M20.86,99.11c-2.52-.62-5.39,2.24-6.43,6.39l9.12,2.27C24.59,103.61,23.38,99.74,20.86,99.11Z"/><path class="cls-6" d="M30.11,101.41c-2.59-.64-5.52,2.2-6.56,6.36l9.37,2.32C34,105.94,32.69,102.05,30.11,101.41Z"/><ellipse cx="19.67" cy="103.4" rx="3.3" ry="1.78" transform="translate(-85.42 97.53) rotate(-76.04)"/><circle class="cls-6" cx="19.14" cy="101.83" r="0.89"/><ellipse cx="29.03" cy="105.73" rx="3.3" ry="1.78" transform="translate(-80.57 108.39) rotate(-76.04)"/><circle class="cls-6" cx="28.51" cy="104.15" r="0.89"/><circle class="cls-7" cx="33.64" cy="119.3" r="1.65"/><circle class="cls-7" cx="13.79" cy="112.8" r="1.65"/><path class="cls-8" d="M15.78,115.42c1.9,4.68,8.36,6.32,12.48,3.66,1.62-1,.12-3.65-1.51-2.6-2.31,1.49-6.89,1.08-8.08-1.86-.72-1.76-3.62-1-2.89.8Z"/><path class="cls-8" d="M1.41,114.46a1.5,1.5,0,0,0,0-3,1.5,1.5,0,0,0,0,3Z"/><path class="cls-9" d="M24.68,97.9c-1.81-.37-3.52-.67-5.38-.88-.39-.06-.6-.18-.46-.32h0a1.65,1.65,0,0,1,.82-.34c1.5-.18,3-.3,4.7-.35.34,0,.73.42.83,1h0C25.31,97.58,25.08,98,24.68,97.9Z"/><path class="cls-9" d="M29.67,97.88a6.8,6.8,0,0,1,4.25,2.57,1.69,1.69,0,0,1,.27,1.47h0c-.16.41-.62.32-.92-.09a7.2,7.2,0,0,0-4.34-3.16c-.26,0-.28-.16-.08-.36h0A1.46,1.46,0,0,1,29.67,97.88Z"/><path class="cls-10" d="M108,70.53c.6,12.21-4.83,30.05-12.65,40.47-7.09,10.42-12.72-8.19-12-39.87.7-31.51,6.08-48.55,12.59-39.7C101.77,40.3,107.46,58.12,108,70.53Z"/><path class="cls-10" d="M174.76,128.42c-18.9,8.37-35.64,13.39-36.92,4.81-.65-8.44,12-22.77,27.17-26.51,16.91-4,29.72.33,33,4.2C200.51,115,192.05,120,174.76,128.42Z"/><path class="cls-11" d="M27.72,53.1C42.22,30.58,41.39,75,36.05,96.47"/><path class="cls-11" d="M20.82,52.43c14.5-22.51,13.67,21.89,8.33,43.38"/><circle class="cls-12" cx="20.99" cy="52.29" r="1.91"/><circle class="cls-12" cx="27.4" cy="53.88" r="1.91"/><path class="cls-4" d="M43,162.1c-1,.11-2.07.19-3.12.23-1.24.94-4.25-1.41-5.23-3.89-4.26-9.29-1.44-22.72,5.31-29.74,1.69-1.87,4.25-2.06,5.42-1,.78.68,1.56,1.34,2.34,2,1.17,1,.71,2.62-.79,4.16-6.1,5.93-8.1,18-3.5,25.06C44.59,160.7,48.51,160.87,43,162.1Z"/><path class="cls-4" d="M63.07,171c-1,.11-2.08.18-3.12.23-1.25.94-4.25-1.42-5.23-3.89-4.26-9.29-1.44-22.72,5.3-29.75,1.69-1.86,4.25-2.06,5.42-1,.79.67,1.56,1.34,2.34,2,1.17,1,.72,2.61-.78,4.16-6.1,5.92-8.1,18-3.5,25.06C64.63,169.61,68.55,169.78,63.07,171Z"/><path class="cls-4" d="M122.32,201.18c-1,.11-2.08.19-3.13.23-1.24.94-4.24-1.41-5.23-3.89-4.25-9.28-1.43-22.72,5.31-29.74,1.69-1.87,4.24-2.06,5.42-1l2.34,2c1.17,1,.71,2.62-.78,4.16-6.1,5.93-8.11,18-3.5,25.06C123.87,199.78,127.79,200,122.32,201.18Z"/><path class="cls-4" d="M140.13,209.54c-1,.11-2.07.18-3.12.23-1.25.94-4.25-1.41-5.23-3.89-4.26-9.29-1.44-22.72,5.31-29.74,1.69-1.87,4.24-2.06,5.42-1,.78.68,1.56,1.34,2.33,2,1.18,1,.72,2.61-.78,4.16-6.1,5.93-8.1,18-3.5,25.06C141.69,208.14,145.6,208.31,140.13,209.54Z"/></svg>