<svg id="Layer_1" data-name="Layer 1" xmlns="http://www.w3.org/2000/svg" width="892" height="667" viewBox="0 0 892 667"><defs><style>.cls-1{fill:#534741;}.cls-2{opacity:0.55;}.cls-3{fill:#f7931e;}.cls-4{fill:#998675;}.cls-5{fill:#c69c6d;}.cls-6{fill:#fff;}.cls-7{fill:#ff7bac;}.cls-8{fill:#736357;}.cls-9{fill:#d9e021;}.cls-10{fill:none;stroke:#998675;stroke-miterlimit:10;stroke-width:4px;}.cls-11{fill:#42210b;}</style></defs><title>butterfly orange</title><path class="cls-1" d="M4.81,468.86a1.5,1.5,0,0,0,0-3,1.5,1.5,0,0,0,0,3Z"/><g class="cls-2"><path class="cls-3" d="M803.91,262.87c-19.26-30.78-51.12-55-88.72-57C677.49,203,634.05,222.41,589,260.7a569.15,569.15,0,0,0-44.74,42.35c1.48-33.81-3.8-68.18-14.83-101-17.39-49.75-44-92.16-72.7-123.4-29-30.36-60-49.53-93.09-32.56C330.77,63.88,300.7,97,278.28,138.6c-22.12,42.23-36.6,93-31.18,160.34,5.14,66.86,30.48,113.53,67.67,138.71,36.88,25.51,85.6,29.53,130.43,18.42q6.07-1.83,11.83-4.19a35,35,0,0,0,5.38,10.74C490.68,501.31,612,507,711.25,436.87c49.53-35,82.85-64.59,98.32-90.9C825.15,319.22,822.88,295.76,803.91,262.87Z"/></g><path class="cls-3" d="M727.15,262.87c-19.26-30.78-51.12-55-88.71-57-37.71-2.82-81.15,16.56-126.21,54.85a565.51,565.51,0,0,0-44.73,42.35c1.48-33.81-3.81-68.18-14.84-101-17.38-49.75-44-92.16-72.7-123.4C351,48.31,320,29.14,286.87,46.11,254,63.88,223.94,97,201.52,138.6c-22.12,42.23-36.59,93-31.18,160.34,5.14,66.86,30.48,113.53,67.67,138.71,36.88,25.5,85.61,29.53,130.43,18.42q6.07-1.83,11.83-4.19a35,35,0,0,0,5.38,10.74c28.27,38.69,149.63,44.39,248.84-25.75,49.53-35,82.85-64.59,98.32-90.9C748.39,319.22,746.12,295.76,727.15,262.87Z"/><path class="cls-4" d="M648.2,501,145.08,382.19a52.29,52.29,0,1,0-23.27,99.37L623.65,600.08A52.29,52.29,0,1,0,648.2,501Z"/><path class="cls-5" d="M347.53,482.21c1.91,32.47-2,59.48-11.39,49.16-4.44-4.68-8.08-16.17-9.95-26.53a109.37,109.37,0,0,1-1.43-29A199.28,199.28,0,0,1,329.07,450c2-8.57,4.4-17.78,7.07-20.65C341.44,422.77,345.92,449.73,347.53,482.21Z"/><path class="cls-5" d="M403.2,494.86c1.91,32.47-2,59.48-11.39,49.16-4.43-4.68-8.08-16.17-9.95-26.53a108.93,108.93,0,0,1-1.43-29,199.57,199.57,0,0,1,4.31-25.88c2-8.57,4.4-17.78,7.07-20.65C397.11,435.42,401.59,462.38,403.2,494.86Z"/><path class="cls-5" d="M459.71,507.52c1.91,32.46-2,59.47-11.38,49.16-4.44-4.69-8.08-16.18-10-26.54a109.72,109.72,0,0,1-1.43-29,199.76,199.76,0,0,1,4.32-25.89c2-8.57,4.4-17.77,7.07-20.65C453.62,448.07,458.1,475,459.71,507.52Z"/><rect class="cls-6" x="79.3" y="426.75" width="63.26" height="3.38"/><path class="cls-6" d="M94.9,401.86c-8.62,0-15.6,11.52-15.6,25.73h31.21C110.51,413.38,103.52,401.86,94.9,401.86Z"/><path class="cls-6" d="M126.53,401.86c-8.85,0-16,11.52-16,25.73h32.05C142.56,413.38,135.38,401.86,126.53,401.86Z"/><ellipse cx="94.48" cy="416.62" rx="5.9" ry="10.97"/><circle class="cls-6" cx="91.53" cy="411.98" r="2.95"/><ellipse cx="126.53" cy="416.62" rx="5.9" ry="10.97"/><circle class="cls-6" cx="123.58" cy="411.98" r="2.95"/><circle class="cls-7" cx="152.26" cy="456.69" r="5.48"/><circle class="cls-7" cx="83.09" cy="451.63" r="5.48"/><path class="cls-1" d="M94.63,456.8c8.31,11.9,28.49,11,37.69.95,1.3-1.42-.81-3.55-2.12-2.12-7.74,8.5-25.75,10-33-.34-1.1-1.57-3.7-.07-2.59,1.51Z"/><path class="cls-8" d="M105.38,394.07a41.74,41.74,0,0,1-17.25,1.24c-1.28-.19-2.29-.75-2.33-1.16h0c0-.41,1-.8,2.15-1a48,48,0,0,0,15.86-5.1c1-.57,2.12.28,2.65,2.06h0C106.94,391.93,106.43,393.77,105.38,394.07Z"/><path class="cls-8" d="M121.9,390.62c4-.3,9.83.93,15.55,4,1.16.61,1.92,2.7,1.74,4.44h0c-.16,1.76-1.48,2.27-2.67,1.35A33.44,33.44,0,0,0,120.06,393c-1-.16-1.35-.55-.83-1.09h0A5,5,0,0,1,121.9,390.62Z"/><path class="cls-9" d="M352.82,243.08c9.73,25.71,14,42.09,13.18,58.64a75,75,0,0,1-19.25,46c-12.34,13.1-25.4,18.5-38.58,5.44-13-12.46-26.13-43.39-34.64-88.94-8.17-45.12-9.76-93.55-7.57-125.83,2.33-32.79,8.42-49.43,19-42.7,10.67,6.26,21.09,33,33,61.76C329.55,186.7,342.66,218,352.82,243.08Z"/><path class="cls-9" d="M614.69,372.76c-23.66,18.05-53.24,37.35-75.61,48.82-22.79,11.57-38.37,15.3-44,4.23-10.88-22.09,28.65-88.38,71.18-116.49a115.78,115.78,0,0,1,66.43-18.46c19.13.75,32,6.41,38.83,13.47C684.41,318.93,659.92,335.52,614.69,372.76Z"/><path class="cls-10" d="M80.14,248.09c28.68-84.17,61.58,59.6,61.58,133.11"/><path class="cls-10" d="M57.37,251.47c28.68-84.17,61.57,59.59,61.57,133.1"/><circle class="cls-11" cx="57.79" cy="250.88" r="6.33"/><circle class="cls-11" cx="79.72" cy="250.88" r="6.33"/><path class="cls-4" d="M210.45,579.22c-2.66.93-5.32,1.81-8,2.62-2.18,3.32-12.46-.93-17.09-7-19-22.88-18.54-63-5.16-87.84,3.22-6.57,11.69-10.59,17.67-9.65q5.85.84,11.41,2.15c5.68,1.46,6.17,5.77,2.08,10.78-16.66,19.4-20.27,58.75-2.56,78.64C213.28,573.93,224.16,572.39,210.45,579.22Z"/><path class="cls-4" d="M282.15,591.87q-4,1.41-8,2.62c-2.18,3.32-12.47-.93-17.09-7-19-22.88-18.55-63-5.17-87.84,3.23-6.57,11.7-10.58,17.68-9.65q5.84.84,11.41,2.15c5.68,1.47,6.17,5.77,2.07,10.79-16.66,19.39-20.26,58.74-2.55,78.63C285,586.58,295.86,585,282.15,591.87Z"/><path class="cls-4" d="M497.24,641.64c-2.66.93-5.32,1.81-8,2.62-2.18,3.32-12.47-.93-17.09-7-19-22.88-18.55-63-5.17-87.83,3.23-6.57,11.7-10.59,17.68-9.65q5.85.82,11.41,2.14c5.68,1.47,6.17,5.78,2.08,10.79-16.67,19.39-20.27,58.75-2.56,78.64C500.07,636.35,511,634.81,497.24,641.64Z"/><path class="cls-4" d="M561.35,654.29q-4,1.41-8,2.62c-2.19,3.32-12.47-.93-17.1-7-19-22.88-18.54-63-5.16-87.84,3.22-6.57,11.7-10.59,17.67-9.65q5.85.84,11.41,2.15c5.69,1.46,6.17,5.77,2.08,10.78-16.66,19.4-20.26,58.75-2.55,78.64C564.18,649,575.05,647.46,561.35,654.29Z"/></svg>