<svg id="Layer_1" data-name="Layer 1" xmlns="http://www.w3.org/2000/svg" width="249" height="159" viewBox="0 0 249 159"><defs><style>.cls-1{fill:#f7931e;stroke:gray;stroke-linecap:round;stroke-width:20px;stroke-dasharray:4 41;opacity:0.58;}.cls-1,.cls-4,.cls-6{stroke-miterlimit:10;}.cls-2{fill:#93278f;}.cls-3{fill:#998675;}.cls-4,.cls-6{fill:none;}.cls-4{stroke:#000;}.cls-5{fill:#ff7bac;}.cls-6{stroke:#998675;stroke-width:5px;}.cls-7{fill:#fcee21;}.cls-8{fill:#b96e16;}</style></defs><title>fangede sommerfugl</title><ellipse class="cls-1" cx="124.5" cy="79.5" rx="114.61" ry="69.51"/><path class="cls-2" d="M77.29,65.19C82.6,56.84,91.06,52.73,96.2,56s5,12.68-.32,21a25.3,25.3,0,0,1-8.38,8.34A28.82,28.82,0,0,1,90,88.52c4.57,6.77,5.45,14.16,2,16.51s-10-1.26-14.56-8c-3.72-5.53-5-11.46-3.47-14.73C72.31,77.85,73.44,71.24,77.29,65.19Z"/><path class="cls-2" d="M66.45,66.44C61.14,58.1,52.68,54,47.54,57.24s-5,12.69.32,21a25.3,25.3,0,0,0,8.38,8.34,28.82,28.82,0,0,0-2.47,3.16c-4.57,6.77-5.45,14.16-2,16.51s10-1.26,14.56-8c3.73-5.53,5-11.46,3.47-14.73C71.44,79.1,70.3,72.49,66.45,66.44Z"/><rect class="cls-3" x="69.5" y="66.04" width="5.17" height="31.18" rx="2.58"/><ellipse class="cls-3" cx="72.09" cy="60.79" rx="4.96" ry="6.92"/><path class="cls-4" d="M69.48,58.29c0-.6.36-1.08.79-1.08s.8.48.8,1.08"/><path class="cls-4" d="M72.23,58.19a.81.81,0,1,1,1.59,0"/><path class="cls-4" d="M75.07,60.65a9.64,9.64,0,0,1-2.88.36c-1,0-2.33-.11-2.88-.16"/><ellipse class="cls-5" cx="76" cy="60.19" rx="0.56" ry="0.6"/><ellipse class="cls-5" cx="68.34" cy="60.19" rx="0.56" ry="0.6"/><rect class="cls-3" x="70.32" y="37.45" width="0.58" height="17.34"/><path class="cls-6" d="M70.69,37.57c0-.55-2.13-1.7-2.92-1.41s-1.66,2.41-1.75,3.5c-.25,3.08,3,5.5,2.84-1.09"/><rect class="cls-3" x="72.82" y="37.28" width="0.58" height="17.34" transform="translate(146.22 91.9) rotate(-180)"/><path class="cls-6" d="M73,37.41c0-.55,2.13-1.71,2.92-1.42s1.66,2.42,1.75,3.5c.25,3.09-3,5.5-2.83-1.08"/><ellipse class="cls-7" cx="55.48" cy="69.96" rx="4.95" ry="10.75" transform="translate(-30.75 46.79) rotate(-36.55)"/><ellipse class="cls-7" cx="88.07" cy="69.57" rx="10.75" ry="4.95" transform="translate(-22.41 89.36) rotate(-48.46)"/><ellipse class="cls-7" cx="58.48" cy="95.42" rx="6.29" ry="3.5" transform="translate(-53.3 89.93) rotate(-55.68)"/><ellipse class="cls-7" cx="85.9" cy="95.42" rx="3.5" ry="6.29" transform="translate(-36.2 55.74) rotate(-30)"/><path class="cls-7" d="M71.21,77.34a1.15,1.15,0,0,1,1.5-.06,1.5,1.5,0,0,0,2.05-.54,1.53,1.53,0,0,0-.54-2,4.14,4.14,0,0,0-4.53.06,1.54,1.54,0,0,0-.54,2,1.52,1.52,0,0,0,2.06.54Z"/><path class="cls-7" d="M71.21,81.59a1.15,1.15,0,0,1,1.5-.06A1.51,1.51,0,0,0,74.76,81a1.54,1.54,0,0,0-.54-2.06,4.14,4.14,0,0,0-4.53.06,1.54,1.54,0,0,0-.54,2,1.52,1.52,0,0,0,2.06.54Z"/><path class="cls-7" d="M71.21,84.59a1.15,1.15,0,0,1,1.5-.06A1.51,1.51,0,0,0,74.76,84a1.54,1.54,0,0,0-.54-2.06,4.14,4.14,0,0,0-4.53.06,1.54,1.54,0,0,0-.54,2,1.52,1.52,0,0,0,2.06.54Z"/><path class="cls-7" d="M71.21,88.34a1.14,1.14,0,0,1,1.5,0,1.5,1.5,0,1,0,1.51-2.59,4.12,4.12,0,0,0-4.53,0,1.55,1.55,0,0,0-.54,2.06,1.52,1.52,0,0,0,2.06.53Z"/><path class="cls-8" d="M118.82,81.37a1.78,1.78,0,0,1-.6-1.45,2,2,0,0,1,.71-1.59,3.17,3.17,0,0,1,2-.57l18.1-.21a2.55,2.55,0,0,1,1.72.61,2,2,0,0,1,.71,1.56,1.71,1.71,0,0,1-.68,1.45,3,3,0,0,1-1.86.51l-18.64.2A2.23,2.23,0,0,1,118.82,81.37Zm0,9.81a1.86,1.86,0,0,1-.57-1.46c0-1.44.9-2.18,2.7-2.23l18.37-.67a2.17,2.17,0,0,1,1.7.54,2,2,0,0,1,.68,1.55c0,1.27-.83,1.94-2.49,2l-18.85.74A2.21,2.21,0,0,1,118.79,91.18Z"/><path class="cls-8" d="M189.91,85.77a15.79,15.79,0,0,1,1.51,7.06,13.36,13.36,0,0,1-1.4,5.89,12.22,12.22,0,0,1-4.19,4.8,11.58,11.58,0,0,1-6.67,1.89Q164,105.41,164,88.64c0-1.89.68-2.84,2.05-2.84s2.06.79,2.06,2.37q0,12.92,10.64,12.91a9.21,9.21,0,0,0,4.73-1.15,7.77,7.77,0,0,0,3-3,8.13,8.13,0,0,0,1-3.92c0-3.11-.69-5.46-2.06-7s-3.56-2.37-6.59-2.37c-1.11,0-1.67-.68-1.67-2a3.54,3.54,0,0,1,.35-1.76,1.35,1.35,0,0,1,1.27-.61q7.77,0,7.78-7.77a9,9,0,0,0-.84-3.79,7.64,7.64,0,0,0-2.38-3,5.79,5.79,0,0,0-3.59-1.15A6.92,6.92,0,0,0,176,64.64a7.71,7.71,0,0,0-2.75,3,9.09,9.09,0,0,0-1,4.36,10.38,10.38,0,0,0,.16,1.35,9.3,9.3,0,0,1,.17,1.42A1.79,1.79,0,0,1,172,76.1a2,2,0,0,1-1.48.51,1.9,1.9,0,0,1-2-1.35,13.87,13.87,0,0,1-.48-3.66,12.92,12.92,0,0,1,1.54-6.28,11.3,11.3,0,0,1,4.18-4.43,11,11,0,0,1,5.78-1.59,10.24,10.24,0,0,1,5.49,1.59,11.63,11.63,0,0,1,4.1,4.36,12.55,12.55,0,0,1,1.54,6.22,12.94,12.94,0,0,1-1.35,6,8.6,8.6,0,0,1-3.67,3.82A9.37,9.37,0,0,1,189.91,85.77Z"/></svg>