<svg id="Layer_1" data-name="Layer 1" xmlns="http://www.w3.org/2000/svg" xmlns:xlink="http://www.w3.org/1999/xlink" width="219" height="171" viewBox="0 0 219 171"><defs><style>.cls-1{opacity:0.75;}.cls-2{fill:#736357;}.cls-3{fill:#999;opacity:0.59;}.cls-4{fill:#534741;}.cls-5{fill:#fbb03b;}.cls-6{fill:#fff;}.cls-7{fill:#42210b;}</style></defs><title>fat angry bee</title><image class="cls-1" width="293" height="245" transform="translate(-30.28 -30.15)" xlink:href="fat%20angry%20bee1.png"/><path class="cls-2" d="M160.19,0c-6.76,6.65-7.93,16.09-6.56,25.12,1.89,12.52,5.86,24.92,8.93,37.19.47,1.87,3.37,1.08,2.9-.8-2.51-10-5.15-20-7.5-30s-3.67-21.45,4.35-29.36c1.38-1.36-.74-3.48-2.12-2.12Z"/><path class="cls-2" d="M151.15,64.12Q146.07,49.21,141,34.32c-3.43-10.07-7.59-22.49.81-31.31,1.33-1.4-.79-3.52-2.12-2.12-7.1,7.45-6.63,17.75-3.92,27.05,3.62,12.46,8.32,24.69,12.52,37,.62,1.82,3.52,1,2.89-.79Z"/><ellipse class="cls-3" cx="89.73" cy="46.04" rx="24.49" ry="41.64" transform="translate(-7.08 17.77) rotate(-10.89)"/><path class="cls-4" d="M-.38,155.23,12.33,140c-3.65-18,7.53-36.61,26.42-44.43l-.07-.26L167.24,57.16v0c22.35-5.81,44.82,5.12,50.71,25s-7,41.26-28.87,48.59v0L60.54,169l-.08-.26c-15.5,2.9-30.66-2.09-39.89-12.35Z"/><rect class="cls-5" x="90.51" y="77.99" width="24.28" height="76.79" rx="12" transform="translate(-28.88 34.03) rotate(-16.54)"/><rect class="cls-5" x="54.15" y="90.05" width="15.81" height="76.79" rx="7.91" transform="translate(-33.99 22.98) rotate(-16.54)"/><rect class="cls-5" x="77.11" y="84.55" width="7.22" height="76.68" rx="3.61" transform="translate(-31.64 28.06) rotate(-16.54)"/><rect class="cls-5" x="42.46" y="95.07" width="5.36" height="76.79" rx="2.68" transform="matrix(0.96, -0.28, 0.28, 0.96, -36.12, 18.37)"/><ellipse class="cls-3" cx="52.07" cy="60.54" rx="24.49" ry="41.64" transform="translate(-25.48 41.5) rotate(-35.5)"/><path class="cls-6" d="M159,81.1l.8,2.7h0a11.15,11.15,0,0,0,21.37-6.34l1.36-.41a11.15,11.15,0,0,0,21.37-6.34l.55-.17-.8-2.7Zm29.27-8.55,7.85-2.33a4.09,4.09,0,1,1-7.85,2.33ZM166.92,78.9l7.85-2.33a4.09,4.09,0,0,1-7.85,2.33Z"/><path class="cls-6" d="M161.08,102.54c.16-.05,13.85-1.55,28.86-3.71s28-6.19,28.19-8.52c0-2.44-14.12-.51-29.27,4.17S161.14,102.52,161.08,102.54Z"/><path class="cls-6" d="M174.43,68.5c1.8.48-1.09,0,3.89-1.86,4.52-1.62,17-7.67,18.3-9.33,1.36-1.49-12.6,4.51-19.74,7.2C169.38,67.15,172.79,67.67,174.43,68.5Z"/><path class="cls-4" d="M172.42,156.93c-5.51,4.7,4.08,3.8,5.83,3.28,2.16-.64,1.64-8.86-1.18-18.35s-6.86-16.67-9-16c-1.49.44-6.37,9.24-.77,10.07C171.52,136.54,177.74,152.4,172.42,156.93Z"/><path class="cls-4" d="M153.74,162.48c-5.51,4.7,4.08,3.79,5.83,3.27,2.17-.64,1.64-8.86-1.18-18.35s-6.86-16.66-9-16c-1.5.45-6.37,9.25-.77,10.08C152.85,142.09,159.06,157.94,153.74,162.48Z"/><path class="cls-4" d="M136.15,167.7c-5.51,4.7,4.08,3.8,5.83,3.28,2.17-.65,1.64-8.86-1.18-18.35s-6.86-16.67-9-16c-1.49.44-6.37,9.24-.77,10.07C135.25,147.31,141.47,163.16,136.15,167.7Z"/><ellipse class="cls-7" cx="161.23" cy="1.22" rx="1.69" ry="1.41" transform="translate(6.32 45.94) rotate(-16.54)"/><ellipse class="cls-7" cx="140.84" cy="1.98" rx="1.69" ry="1.41" transform="translate(5.26 40.17) rotate(-16.54)"/></svg>