<svg xmlns="http://www.w3.org/2000/svg" xmlns:xlink="http://www.w3.org/1999/xlink" width="1288" height="1102" viewBox="0 0 1288 1102"><defs><style>.cls-1{isolation:isolate;}.cls-2{opacity:0.78;mix-blend-mode:multiply;}.cls-3{fill:#f7931e;}.cls-4{fill:none;stroke:gray;stroke-linecap:round;stroke-miterlimit:10;stroke-width:20px;stroke-dasharray:4 41;}.cls-5{fill:#fff;}.cls-6{opacity:0.49;}.cls-7{fill:#eaac6e;}</style></defs><title>game over</title><g class="cls-1"><g id="Layer_1" data-name="Layer 1"><image class="cls-2" width="1288" height="1102" transform="translate(11.64 1)" xlink:href="game%20over1.png"/><path class="cls-3" d="M1017,1038.84Q788.54,921.92,610.52,814.16q-184.83,97.26-419.13,199.17,76.73-171.95,139.94-343.9Q163.23,599.29,35.56,535.5,234.87,459.79,397,390.2q22.29-172,53.7-343.85c40.6,67.45,98.18,136,172.68,206.36,76.2-66.67,136-132.82,179.28-199.23q29.25,174.84,45,348.77,162.46,79,364.93,166.72-137.4,57.1-312.21,117.11Q954.19,862.1,1017,1038.84Z"/><path class="cls-4" d="M1017,1038.84Q788.54,921.92,610.52,814.16q-184.83,97.26-419.13,199.17,76.73-171.95,139.94-343.9Q163.23,599.29,35.56,535.5,234.87,459.79,397,390.2q22.29-172,53.7-343.85c40.6,67.45,98.18,136,172.68,206.36,76.2-66.67,136-132.82,179.28-199.23q29.25,174.84,45,348.77,162.46,79,364.93,166.72-137.4,57.1-312.21,117.11Q954.19,862.1,1017,1038.84Z"/><image class="cls-2" width="451" height="198" transform="translate(423.64 404)" xlink:href="game%20over2.png"/><path class="cls-5" d="M497.79,550.05l-27.18,7.11-4.85-15.42L453.07,543l-1.27,16-28.72-.75,13.24-94.91,30.76-4.92Zm-36.08-29.43-6.56-23.84-1.79,24.64Z"/><path class="cls-5" d="M556.83,472.26q.49,5.14.7,11.39t0,12.94q-.26,6.69-1,13.63a113.81,113.81,0,0,1-2.28,13.4,86.67,86.67,0,0,1-3.8,12.21A45.77,45.77,0,0,1,544.84,546a28.51,28.51,0,0,1-7.54,7.19,21.59,21.59,0,0,1-9.79,3.29A23,23,0,0,1,516,554.94a26.13,26.13,0,0,1-8.83-6.25,39.09,39.09,0,0,1-6.56-9.78,77,77,0,0,1-4.59-12.14,118.65,118.65,0,0,1-3-13.28q-1.12-6.81-1.74-13.15-.93-9.75-1.09-19.55t.36-19.61l26.17-1.25q-.45,11.08-.47,22.23t1,22.29q.12,1.19.42,3.51t.81,5.19c.33,1.92.74,3.87,1.21,5.86a40.08,40.08,0,0,0,1.67,5.43,15.65,15.65,0,0,0,2.15,3.94,2.93,2.93,0,0,0,2.57,1.37,3.56,3.56,0,0,0,2.71-2.19,19.48,19.48,0,0,0,1.77-5.34,64,64,0,0,0,1-7.55q.32-4.25.38-8.82c.05-3.05,0-6.1-.06-9.13s-.19-5.87-.31-8.48-.25-4.92-.41-6.92-.28-3.49-.37-4.46q-.52-5.43-1.18-10.82t-1.45-10.72l26-2.5Q555.88,462.36,556.83,472.26Z"/><path class="cls-5" d="M618,444l2.28,29.59L603.76,476l2.11,66.44-23.34,3.79-6.23-66-16.48,2.7L557.33,450Z"/><path class="cls-5" d="M674.64,440.27l-.3,29.7a16.48,16.48,0,0,0-3.3-.46,25.16,25.16,0,0,0-3.25.1,23.1,23.1,0,0,0-7.71,2.11,18.55,18.55,0,0,0-6.2,4.78,20.32,20.32,0,0,0-3.9,7.41,26.2,26.2,0,0,0-.75,10,19.24,19.24,0,0,0,1.52,6.18,11.86,11.86,0,0,0,3,4.14,10.41,10.41,0,0,0,4.2,2.2,14.42,14.42,0,0,0,5.09.35,17.38,17.38,0,0,0,4.23-1,30.84,30.84,0,0,0,4.26-1.88,37.45,37.45,0,0,0,4-2.5,42.64,42.64,0,0,0,3.55-2.8l.92,32.95a31.64,31.64,0,0,1-4.47,2.93,51.29,51.29,0,0,1-5,2.38,41,41,0,0,1-5.23,1.73,33.62,33.62,0,0,1-5.08.91,27.75,27.75,0,0,1-13.51-2,33.83,33.83,0,0,1-11.49-8,44.19,44.19,0,0,1-8.39-12.8,53.09,53.09,0,0,1-4.2-16.5,90.18,90.18,0,0,1,.57-22.73,60.4,60.4,0,0,1,6.24-19.26,40.3,40.3,0,0,1,11.91-13.8,35,35,0,0,1,17.56-6.32,41.41,41.41,0,0,1,8,0A22.51,22.51,0,0,1,674.64,440.27Z"/><path class="cls-5" d="M753.62,531.53,726,535.87l-3.32-32.16-12.8,1.23L712,535.52l-24.93,2.4-7.29-98.14,26.64-1,3.13,50.17,12.36-1.18-5-53.79,25.46-1.6Z"/><path class="cls-5" d="M776.24,424.89l2.47,73.72-20.59,2L749,427.51ZM781.66,520a16.86,16.86,0,0,1-.4,5.8,15.74,15.74,0,0,1-2.09,4.87,12.14,12.14,0,0,1-3.39,3.49,9.52,9.52,0,0,1-9.08.87,12,12,0,0,1-4-2.78,15.51,15.51,0,0,1-3-4.39,17.49,17.49,0,0,1-1.47-5.62,18.07,18.07,0,0,1,.37-5.8,15.37,15.37,0,0,1,2.06-4.94A12.69,12.69,0,0,1,764.1,508a9.34,9.34,0,0,1,4.45-1.62,9.23,9.23,0,0,1,4.63.75,12.62,12.62,0,0,1,4,2.82,15.55,15.55,0,0,1,3,4.45A17.18,17.18,0,0,1,781.66,520Z"/><path class="cls-5" d="M808.07,421.83l2.48,73.72-20.6,2-9.15-73.07Zm5.43,95.09a17.09,17.09,0,0,1-.4,5.8,15.87,15.87,0,0,1-2.09,4.87,12,12,0,0,1-3.4,3.49,9.34,9.34,0,0,1-4.4,1.59,9.52,9.52,0,0,1-4.67-.71,12.08,12.08,0,0,1-4-2.78,15.44,15.44,0,0,1-2.95-4.39,17.55,17.55,0,0,1-1.47-5.63,17.81,17.81,0,0,1,.37-5.8,15.45,15.45,0,0,1,2-4.94,12.69,12.69,0,0,1,3.4-3.52A9.3,9.3,0,0,1,805,504a12.82,12.82,0,0,1,4,2.82,15.81,15.81,0,0,1,3,4.46A17.12,17.12,0,0,1,813.5,516.92Z"/><image class="cls-6" width="335" height="174" transform="translate(485.64 591)" xlink:href="game%20over3.png"/><rect class="cls-7" x="494.76" y="618" width="254.54" height="94" rx="12"/><rect class="cls-4" x="494.76" y="618" width="254.54" height="94" rx="12"/><image class="cls-6" width="219" height="123" transform="translate(549.64 620)" xlink:href="game%20over4.png"/><path class="cls-5" d="M575.18,679.77a3.84,3.84,0,0,1-.51,2,1.54,1.54,0,0,1-1.4.88,2.11,2.11,0,0,1-.89-.22,3.35,3.35,0,0,1-.78-.47l-16.71-13.17q0,4.6,0,12.79a2.42,2.42,0,0,1-.5,1.64,1.73,1.73,0,0,1-1.36.57,1.81,1.81,0,0,1-1.49-.66,3.08,3.08,0,0,1-.53-1.93v-19.9q0-3.66-.1-9.2l-.05-3.78-.15.06a1.21,1.21,0,0,1-.45.13,1.11,1.11,0,0,1-1.08-.79,4.79,4.79,0,0,1-.33-1.86,2.87,2.87,0,0,1,1.51-2.39l.45-.25V641.4a2.39,2.39,0,0,1,.51-1.64,1.7,1.7,0,0,1,1.36-.56,1.86,1.86,0,0,1,1.3.44,1.42,1.42,0,0,1,.51,1.13v.32a16.56,16.56,0,0,1,7.45-1.77,15.67,15.67,0,0,1,7.32,1.64,11.56,11.56,0,0,1,4.84,4.6,13.78,13.78,0,0,1,1.68,6.93,12.7,12.7,0,0,1-1.94,7.21,12.06,12.06,0,0,1-5.13,4.41,16.45,16.45,0,0,1-7,1.48,14.54,14.54,0,0,1-4.23-.75l16.76,13A2.28,2.28,0,0,1,575.18,679.77Zm-16.66-35.44a21.86,21.86,0,0,0-4,1.73c.06,1.6.1,2.77.1,3.53q.25,5.17.3,10.77a19.31,19.31,0,0,0,6.34.95,11.48,11.48,0,0,0,7.5-2.27,7.75,7.75,0,0,0,2.77-6.36,8.47,8.47,0,0,0-2.59-6.4,9.4,9.4,0,0,0-6.77-2.49A12.56,12.56,0,0,0,558.52,644.33Z"/><path class="cls-5" d="M587.69,681.44a13.85,13.85,0,0,1-4.53-5.92,21.77,21.77,0,0,1,.07-16.26,14.25,14.25,0,0,1,4.58-6,11.74,11.74,0,0,1,13-.48,11.72,11.72,0,0,1,4.23,4.83,15.75,15.75,0,0,1,1.51,7.05,7.33,7.33,0,0,1-.35,2.68c-.24.52-.82.81-1.76.85l-19.18.5a11.75,11.75,0,0,0,1.15,4.92,11.48,11.48,0,0,0,3.3,4.22,7.77,7.77,0,0,0,5,1.7,7.79,7.79,0,0,0,6-2.58,30.91,30.91,0,0,0,2.06-2.84,1.22,1.22,0,0,1,1.11-.57,1.69,1.69,0,0,1,1.24.63,2.11,2.11,0,0,1,.57,1.45,2.67,2.67,0,0,1-.4,1.33,18,18,0,0,1-3.9,4.72,9.78,9.78,0,0,1-6.52,1.95A11.55,11.55,0,0,1,587.69,681.44Zm15.08-17c.33,0,.5-.3.5-.89a8.22,8.22,0,0,0-2.42-6.14,8.37,8.37,0,0,0-6.09-2.36,7.6,7.6,0,0,0-4.93,1.76,12.72,12.72,0,0,0-3.38,4.16,9.45,9.45,0,0,0-1.2,4Z"/><path class="cls-5" d="M629.07,673.69a3.56,3.56,0,0,1,.37,1.92,8.82,8.82,0,0,1-1.73,5.54,5.37,5.37,0,0,1-4.46,2.27c-2.51,0-4.32-1.38-5.41-4.16s-1.64-7.07-1.64-12.91q0-3.27.26-7.5l-3.12-.31c-1-.13-1.52-.82-1.52-2.08s.49-1.89,1.46-1.89c.27,0,.84,0,1.72.12a14.83,14.83,0,0,0,1.71.13q.35-4.67,1.21-11.72a2.47,2.47,0,0,1,.52-1.42,1.82,1.82,0,0,1,1.39-.47,1.9,1.9,0,0,1,1.51.63,2,2,0,0,1,.45,1.58l-.25,2.08q-.75,7.31-1,9.57l4,.13a1.49,1.49,0,0,1,1.13.38,1.8,1.8,0,0,1,.38,1.32,2.42,2.42,0,0,1-.38,1.61,2.11,2.11,0,0,1-1.43.47c-1,0-2.38.06-4,.06-.17,2.65-.25,5.08-.25,7.31a45.71,45.71,0,0,0,.78,9.57c.52,2.32,1.47,3.47,2.85,3.47a2,2,0,0,0,1.76-1.07,7,7,0,0,0,.75-3.21,3.33,3.33,0,0,1,.33-1.48c.18-.32.61-.48,1.28-.48A1.47,1.47,0,0,1,629.07,673.69Z"/><path class="cls-5" d="M652.45,653.59a10.43,10.43,0,0,1,1.81,6.21,8.23,8.23,0,0,1-1.66,5.45,5.33,5.33,0,0,1-4.28,2,2.15,2.15,0,0,1-1.43-.38,1.77,1.77,0,0,1-.43-1.38c0-1.09.42-1.66,1.26-1.7,2.18-.26,3.27-1.6,3.27-4a6.26,6.26,0,0,0-.85-3.34,3,3,0,0,0-2.77-1.38,4.23,4.23,0,0,0-3.5,2.14,17.07,17.07,0,0,0-2.34,5.32,29.87,29.87,0,0,0-1,6.27c-.2,3.87-.3,7.52-.3,11a9.75,9.75,0,0,1-.38,3.4,1.49,1.49,0,0,1-1.49.82,1.67,1.67,0,0,1-1.53-.67,4.41,4.41,0,0,1-.43-2.3l0-12q0-4.15-.5-11-.3-4-.35-5.67a2,2,0,0,1,.45-1.54,1.82,1.82,0,0,1,1.41-.54c1,0,1.59.63,1.66,1.89q.3,4,.35,7.75a13.51,13.51,0,0,1,3-6.49,6.65,6.65,0,0,1,5.09-2.33A5.84,5.84,0,0,1,652.45,653.59Z"/><path class="cls-5" d="M666.52,699.08a2.34,2.34,0,0,1-.58-1.61,3.12,3.12,0,0,1,.15-.88q2.77-8.57,4.73-15.5-2.05-1.64-4.38-6.17a74.05,74.05,0,0,1-4.2-10.24,95.17,95.17,0,0,1-2.89-10.55,3.07,3.07,0,0,1-.1-.82,1.88,1.88,0,0,1,.5-1.32,1.83,1.83,0,0,1,1.46-.57,1.28,1.28,0,0,1,1.06.38,3.26,3.26,0,0,1,.5,1.32q5.13,19.78,9.36,23.25,3.07-13.62,5.09-23.5a2.75,2.75,0,0,1,.55-1.26,1.44,1.44,0,0,1,1.11-.38,2,2,0,0,1,2.16,1.89,1.57,1.57,0,0,1,0,.69q-1.71,8.82-2.79,13.67t-2.69,10.71q-1.17,4.15-2.9,10.18T669.72,698a2.88,2.88,0,0,1-.68,1.29,1.53,1.53,0,0,1-1.08.41A1.84,1.84,0,0,1,666.52,699.08Z"/><path class="cls-5" d="M695.87,671.33a3,3,0,0,1-.38-1.64,13.51,13.51,0,0,1,.66-4.35,14.43,14.43,0,0,1,1.58-3.37c.62-.94,1.45-2.09,2.49-3.43a27.1,27.1,0,0,0,2.9-4.16,8.69,8.69,0,0,0,1-4.16,10.34,10.34,0,0,0-2-6.55,6.21,6.21,0,0,0-5.14-2.52q-3.87,0-5.66,2T689.55,649a6,6,0,0,0,.93,3.37,2.81,2.81,0,0,0,2.44,1.42c1.11,0,1.67.67,1.67,2a1.64,1.64,0,0,1-.48,1.26,1.77,1.77,0,0,1-1.24.44,4.84,4.84,0,0,1-3.14-1.17,8,8,0,0,1-2.29-3.11,10.45,10.45,0,0,1-.86-4.23q0-5.35,2.77-8.47a9.58,9.58,0,0,1,7.55-3.12,8.64,8.64,0,0,1,5.46,1.77,11,11,0,0,1,3.5,4.69,16.33,16.33,0,0,1,1.21,6.33,12.34,12.34,0,0,1-1.16,5.58,33.29,33.29,0,0,1-3.47,5.26,29.8,29.8,0,0,0-3,4.38,9,9,0,0,0-1,4.25,2.64,2.64,0,0,1-.43,1.6,1.32,1.32,0,0,1-1.13.6A1.19,1.19,0,0,1,695.87,671.33ZM695,681.59a3.79,3.79,0,0,1-.81-2.45,3.46,3.46,0,0,1,.83-2.3,2.5,2.5,0,0,1,1.94-1,2.35,2.35,0,0,1,1.86,1,3.49,3.49,0,0,1,.81,2.3,3.88,3.88,0,0,1-.78,2.45,2.3,2.3,0,0,1-1.89,1A2.41,2.41,0,0,1,695,681.59Z"/></g></g></svg>