<svg id="Layer_1" data-name="Layer 1" xmlns="http://www.w3.org/2000/svg" width="367" height="250" viewBox="0 0 367 250"><defs><style>.cls-1{opacity:0.58;}.cls-2{fill:#f7931e;}.cls-3{fill:gray;}.cls-4{fill:#ed1c24;}</style></defs><title>life</title><g class="cls-1"><ellipse class="cls-2" cx="183" cy="118" rx="170" ry="90.5"/><path class="cls-3" d="M167.47,218.12H167l-4.12-.22a10,10,0,0,1,1.22-20c1.28.08,2.57.15,3.86.21a10,10,0,0,1-.47,20Zm40.95-.63a10,10,0,0,1-.78-20c1.29-.1,2.57-.21,3.85-.33a10,10,0,1,1,1.86,19.91c-1.37.13-2.74.25-4.12.36Zm-85.58-4.83a9.67,9.67,0,0,1-2-.2c-1.36-.27-2.71-.55-4.06-.84A10,10,0,0,1,121,192.07l3.77.79a10,10,0,0,1-2,19.8Zm130-2.13a10,10,0,0,1-2.32-19.73l3.72-.92a10,10,0,0,1,5,19.37l-4,1A10,10,0,0,1,252.85,210.53ZM79.73,199.9a9.9,9.9,0,0,1-3.77-.75q-2-.79-3.87-1.62A10,10,0,1,1,80,179.16c1.15.5,2.32,1,3.5,1.47a10,10,0,0,1-3.78,19.27Zm215.62-4a10,10,0,0,1-4.25-19.06c1.15-.53,2.28-1.08,3.4-1.64a10,10,0,0,1,8.9,17.92q-1.87.93-3.81,1.83A9.87,9.87,0,0,1,295.35,195.92ZM40.81,177.62a10,10,0,0,1-6.29-2.23c-1.13-.91-2.26-1.86-3.34-2.81a10,10,0,1,1,13.15-15.06c.9.78,1.84,1.57,2.78,2.33a10,10,0,0,1-6.3,17.77ZM332.59,171a10,10,0,0,1-7-17.12c.86-.85,1.7-1.71,2.49-2.56A10,10,0,0,1,342.69,165c-1,1.06-2,2.13-3.09,3.17A10,10,0,0,1,332.59,171ZM14.93,141.71a10,10,0,0,1-9.61-7.25c-.43-1.53-.81-3.09-1.13-4.64a10,10,0,1,1,19.6-4c.21,1,.47,2.09.77,3.13a10,10,0,0,1-9.63,12.74ZM352.85,132a7.69,7.69,0,0,1-.83,0,10,10,0,0,1-9.15-10.78c.09-1.05.13-2.12.13-3.18a10,10,0,0,1,20,0c0,1.6-.07,3.22-.2,4.81A10,10,0,0,1,352.85,132Zm-5.35-26.94a10,10,0,0,1-9-5.6c-.48-1-1-2-1.57-2.95a10,10,0,1,1,17.34-10c.78,1.35,1.51,2.73,2.19,4.1a10,10,0,0,1-9,14.41ZM22.05,98.78a10,10,0,0,1-8.41-15.4c.8-1.25,1.67-2.52,2.57-3.77a10,10,0,1,1,16.2,11.72c-.68.94-1.33,1.9-1.93,2.84A10,10,0,0,1,22.05,98.78ZM317.21,72.46a10,10,0,0,1-5.63-1.75q-1.51-1-3.09-2a10,10,0,1,1,10.8-16.84q1.81,1.17,3.57,2.37a10,10,0,0,1-5.65,18.26ZM54.86,68.54A10,10,0,0,1,49.64,50c1.21-.74,2.43-1.46,3.68-2.18a10,10,0,1,1,10,17.35c-1.09.62-2.16,1.26-3.21,1.9A10,10,0,0,1,54.86,68.54ZM277,52.58a10,10,0,0,1-3.33-.57c-1.2-.43-2.4-.84-3.62-1.25a10,10,0,1,1,6.34-19l3.95,1.36A10,10,0,0,1,277,52.58ZM95.87,50.28a10,10,0,0,1-3-19.53c1.32-.42,2.64-.83,4-1.23a10,10,0,0,1,5.75,19.15q-1.84.55-3.66,1.14A10,10,0,0,1,95.87,50.28Zm137.55-8.73a10.37,10.37,0,0,1-1.65-.13L228,40.81A10,10,0,1,1,231,21c1.37.2,2.73.42,4.09.64a10,10,0,0,1-1.62,19.87Zm-93.69-1.09a10,10,0,0,1-1.37-19.9l4.1-.55A10,10,0,0,1,145,39.86c-1.29.16-2.56.33-3.83.51A11.09,11.09,0,0,1,139.73,40.46Zm48.89-2.91h-.17l-3.89,0a10,10,0,0,1,.05-20h.06l4.12,0a10,10,0,0,1-.17,20Z"/></g><path class="cls-4" d="M117,96.57a17,17,0,0,0-24,0L68.6,121l24,24L117,120.57A17,17,0,0,0,117,96.57Z"/><path class="cls-4" d="M68.12,96.57a17,17,0,0,0,0,24L92.55,145l24-24L92.12,96.57A17,17,0,0,0,68.12,96.57Z"/><path d="M172.61,145.7l0,0h0l-.38-.33-24.42-24.42a17.47,17.47,0,0,1,24.7-24.71l.1.1.11-.1a17.47,17.47,0,0,1,24.7,24.71ZM160.12,92.11a16.47,16.47,0,0,0-11.65,28.11l24.1,24.1,24.11-24.1a16.47,16.47,0,0,0-23.3-23.29l-.81.81-.81-.81A16.41,16.41,0,0,0,160.12,92.11Z"/><path d="M251.61,145.7l0,0h0l-.38-.33-24.42-24.42a17.47,17.47,0,0,1,24.7-24.71l.1.1.11-.1a17.47,17.47,0,0,1,24.7,24.71ZM239.12,92.11a16.47,16.47,0,0,0-11.65,28.11l24.1,24.1,24.11-24.1a16.47,16.47,0,0,0-23.3-23.29l-.81.81-.81-.81A16.41,16.41,0,0,0,239.12,92.11Z"/></svg>
