<svg id="Layer_1" data-name="Layer 1" xmlns="http://www.w3.org/2000/svg" xmlns:xlink="http://www.w3.org/1999/xlink" width="403" height="403" viewBox="0 0 403 403"><defs><style>.cls-1{opacity:0.58;}.cls-2{opacity:0.75;}.cls-3{fill:#f7931e;}.cls-4{fill:none;stroke:gray;stroke-linecap:round;stroke-miterlimit:10;stroke-width:20px;stroke-dasharray:4 41;}.cls-5{fill:#b96e16;}.cls-6{fill:#e3ae70;}</style></defs><title>play</title><g class="cls-1"><image class="cls-2" width="403" height="403" xlink:href="play1.png"/><circle class="cls-3" cx="194.78" cy="194.57" r="154.87"/><circle class="cls-4" cx="194.78" cy="194.57" r="154.87"/></g><path class="cls-5" d="M117,131.12a21.47,21.47,0,0,1,8.81,6.17,14.09,14.09,0,0,1,3.32,9.26,13.42,13.42,0,0,1-2.89,8.49,18.29,18.29,0,0,1-8,5.68,31.49,31.49,0,0,1-11.53,2,28.81,28.81,0,0,1-12.34-2.36l-.25,20a2.65,2.65,0,0,1-.9,2.14,3.63,3.63,0,0,1-2.42.76,3.78,3.78,0,0,1-2.51-.76,2.56,2.56,0,0,1-.89-2.06c0-2.34.05-5.79.17-10.36q.16-7.32.16-11.58,0-7.84-.33-17a10.55,10.55,0,0,1-.09-1.61l-.25.16a3.8,3.8,0,0,1-1.45.38,2.23,2.23,0,0,1-1.92-1A4.1,4.1,0,0,1,83,137a1.87,1.87,0,0,1,.68-1.49,9.17,9.17,0,0,1,2-1.18l1.45-.76V132.3a3.48,3.48,0,0,1,.85-2.59,3.64,3.64,0,0,1,2.64-.84,5.16,5.16,0,0,1,2.38.46,1.36,1.36,0,0,1,.85,1.22v.15A36.36,36.36,0,0,1,105.15,129,31.87,31.87,0,0,1,117,131.12Zm-2.89,25.11a13.23,13.23,0,0,0,5.74-4,9.19,9.19,0,0,0,2-5.87,9.49,9.49,0,0,0-2.3-6.25,15,15,0,0,0-6.08-4.26,22,22,0,0,0-8.3-1.53A30.72,30.72,0,0,0,94,137c.11,3.56.17,5.89.17,7s0,2.89.17,5.33q.16,4.5.08,6a24.23,24.23,0,0,0,11.15,2.43A23.5,23.5,0,0,0,114.13,156.23Z"/><path class="cls-5" d="M142.59,181.37a7.39,7.39,0,0,1-4.59-4.76c-.74-2.26-1.11-5.81-1.11-10.63a143.67,143.67,0,0,1,.9-16.23q.89-7.92,2.76-18.29a2.46,2.46,0,0,1,1.11-1.71,4.08,4.08,0,0,1,2.38-.65q3.06,0,3.06,2.52a2.67,2.67,0,0,1-.08.76q-2.22,12.94-3,19.43a116,116,0,0,0-.81,14.32,29.24,29.24,0,0,0,.64,7.28,4.64,4.64,0,0,0,2.68,3.16,17.46,17.46,0,0,0,6.63.91,68.63,68.63,0,0,0,8.38-.45c2.42-.31,5.52-.82,9.32-1.53a4.1,4.1,0,0,1,.85-.07,2.45,2.45,0,0,1,2,.76,2.84,2.84,0,0,1,.64,1.9,2.31,2.31,0,0,1-.85,1.91,6.31,6.31,0,0,1-2.64,1.06,82.23,82.23,0,0,1-17.1,1.68Q146.07,182.74,142.59,181.37Z"/><path class="cls-5" d="M228.53,180.76V181a2,2,0,0,1-1.06,1.83,5.23,5.23,0,0,1-2.6.61,4.07,4.07,0,0,1-2-.46,2.18,2.18,0,0,1-1.11-1.22l-3.92-11.81-24.25-.15-4.17,11.66a3,3,0,0,1-3.14,1.9,4.5,4.5,0,0,1-2.51-.69,2,2,0,0,1-1.07-1.75,7.68,7.68,0,0,1,.17-.91q8.6-22.56,14.55-39.24l1.36-3.66a22.34,22.34,0,0,1,3.41-6.63,5.28,5.28,0,0,1,4.17-2,5,5,0,0,1,3.91,1.75,19.71,19.71,0,0,1,3.06,6.1q3.24,9,8.09,23.31l1.45,4.35h2.38a3.14,3.14,0,0,1,2.25.84,2.77,2.77,0,0,1,.9,2.13q0,3-2.64,3h-.94q2,6,3.41,10.13ZM216,163.92l-2.55-7.85q-3-9.21-4.59-14.09c-.68-2-1.23-3.51-1.62-4.42s-.77-1.37-1.11-1.37-.59.39-.93,1.18-.91,2.3-1.7,4.53l-4.17,11.73-3.49,10.06Z"/><path class="cls-5" d="M260.1,179.54l-.26-21.87q-4.17-1.29-10.29-10a64.34,64.34,0,0,1-4.3-6.85q-1.67-3.14-3.79-8.08a2.72,2.72,0,0,1-.17-.92,2.18,2.18,0,0,1,1.07-1.75,4.09,4.09,0,0,1,2.42-.76c1.42,0,2.55.89,3.41,2.67,1.64,3.5,2.85,5.95,3.61,7.35s2,3.31,3.62,5.75a60.29,60.29,0,0,0,4.34,5.64c1.3,1.47,2.46,2.21,3.49,2.21q2.63,0,7.91-7.92,1.95-3,3.57-5.95t3.75-7.39a4.12,4.12,0,0,1,1.27-1.75,3,3,0,0,1,1.71-.46,4.2,4.2,0,0,1,2.59.8,2.37,2.37,0,0,1,1.06,1.95,2,2,0,0,1-.25,1q-2.39,5.33-4.09,8.53a55.71,55.71,0,0,1-3.74,6.09,37.22,37.22,0,0,1-5.87,6.79,14,14,0,0,1-4.77,3l.26,21.72q0,3-3.23,3.05C261.2,182.44,260.1,181.47,260.1,179.54Z"/><path class="cls-5" d="M298.64,181.25a4.35,4.35,0,0,1-1.53-3.31,4.09,4.09,0,0,1,1.53-3.12,5.27,5.27,0,0,1,3.66-1.37,5.48,5.48,0,0,1,3.66,1.37,4,4,0,0,1,1.62,3.12,4.31,4.31,0,0,1-1.66,3.28,5.41,5.41,0,0,1-3.62,1.44A5.17,5.17,0,0,1,298.64,181.25Zm2.3-12.26a2.66,2.66,0,0,1-.59-1.87l-.52-36.57a2.59,2.59,0,0,1,.69-1.91,2.52,2.52,0,0,1,1.87-.68,2.28,2.28,0,0,1,1.74.68,2.69,2.69,0,0,1,.64,1.91l.34,36.27a3,3,0,0,1-.68,2,2.25,2.25,0,0,1-1.79.79A2.19,2.19,0,0,1,300.94,169Z"/><circle class="cls-5" cx="194.67" cy="247.9" r="42.11"/><polygon class="cls-6" points="225.91 245.84 203.88 258.18 181.85 270.52 182.18 245.27 182.5 220.02 204.21 232.93 225.91 245.84"/></svg>
