<svg id="Layer_1" data-name="Layer 1" xmlns="http://www.w3.org/2000/svg" xmlns:xlink="http://www.w3.org/1999/xlink" width="349" height="180" viewBox="0 0 349 180"><defs><style>.cls-1{opacity:0.49;}.cls-2{fill:#eaac6e;}.cls-3{fill:none;stroke:gray;stroke-linecap:round;stroke-miterlimit:10;stroke-width:20px;stroke-dasharray:4 41;}.cls-4{fill:#fff;}</style></defs><title>play again-</title><image class="cls-1" width="349" height="180" transform="translate(30.11 8.26)" xlink:href="play%20again-1.png"/><rect class="cls-2" x="39.98" y="35.51" width="267.94" height="98.95" rx="12"/><rect class="cls-3" x="39.98" y="35.51" width="267.94" height="98.95" rx="12"/><path class="cls-4" d="M79.39,60.51a11.15,11.15,0,0,1,4.22,4.13,11.92,11.92,0,0,1,1.59,6.2,11.5,11.5,0,0,1-1.39,5.69A9.54,9.54,0,0,1,80,80.33a11.38,11.38,0,0,1-5.52,1.32,10.47,10.47,0,0,1-5.91-1.58l-.12,13.36A2.12,2.12,0,0,1,68,94.86a1.44,1.44,0,0,1-1.16.51,1.47,1.47,0,0,1-1.2-.51,2,2,0,0,1-.43-1.37q0-2.35.08-6.94.07-4.9.08-7.75c0-3.5,0-7.3-.16-11.38a9.43,9.43,0,0,1,0-1.07l-.12.1a1.45,1.45,0,0,1-.7.26,1,1,0,0,1-.91-.69,3.41,3.41,0,0,1-.35-1.61,1.53,1.53,0,0,1,.32-1,4.24,4.24,0,0,1,1-.79l.7-.51V61.3a3,3,0,0,1,.4-1.73A1.48,1.48,0,0,1,66.78,59a1.89,1.89,0,0,1,1.14.3,1,1,0,0,1,.41.82v.1a13,13,0,0,1,5.37-1.17A11.55,11.55,0,0,1,79.39,60.51ZM78,77.32a6.92,6.92,0,0,0,2.76-2.71,8.45,8.45,0,0,0-.13-8.1,7.75,7.75,0,0,0-2.91-2.86,8,8,0,0,0-4-1,11.46,11.46,0,0,0-5.38,1.78c0,2.38.08,4,.08,4.7s0,1.93.08,3.57c0,2,.07,3.33,0,4a8.93,8.93,0,0,0,5.34,1.64A8.44,8.44,0,0,0,78,77.32Z"/><path class="cls-4" d="M90.19,94.1a1.87,1.87,0,0,1-.43-1.33l-.24-36.31A1.9,1.9,0,0,1,90,55.11a1.5,1.5,0,0,1,1.18-.49,1.36,1.36,0,0,1,1.1.49,1.94,1.94,0,0,1,.4,1.3l.21,36.36a1.87,1.87,0,0,1-.43,1.33,1.49,1.49,0,0,1-1.12.46A1.48,1.48,0,0,1,90.19,94.1Z"/><path class="cls-4" d="M119.35,92.11a1.66,1.66,0,0,1,.28,1.12,2.18,2.18,0,0,1-.3,1.22,1,1,0,0,1-.84.46,3.81,3.81,0,0,1-2.46-.66,5.31,5.31,0,0,1-1.37-2.5c-1.22,2.48-3.4,3.72-6.52,3.72a7.69,7.69,0,0,1-5.34-1.83A10.17,10.17,0,0,1,99.89,89,20,20,0,0,1,99,83a18.68,18.68,0,0,1,1.1-6.43,11.49,11.49,0,0,1,3.24-4.84,7.58,7.58,0,0,1,5.12-1.84,6.16,6.16,0,0,1,3.54,1,6.79,6.79,0,0,1,2.37,2.86l.16-1.69c0-1.25.51-1.88,1.38-1.88a1.59,1.59,0,0,1,1.25.48,1.41,1.41,0,0,1,.34,1.15l-.12,1.27c-.19,1.43-.33,2.91-.41,4.44-.08,1.29-.12,3-.12,5.2v3.52c0,1.46,0,2.54.1,3.24a4.05,4.05,0,0,0,.43,1.61,1.27,1.27,0,0,0,1.1.61A1.48,1.48,0,0,1,119.35,92.11ZM113.81,80a8.36,8.36,0,0,0-.86-4,5.29,5.29,0,0,0-2.08-2.22,4.91,4.91,0,0,0-2.32-.67,4.76,4.76,0,0,0-3.61,1.53,9.33,9.33,0,0,0-2.12,3.83,16,16,0,0,0-.67,4.54,14.17,14.17,0,0,0,1.41,6.4,4.77,4.77,0,0,0,4.62,2.83,5.39,5.39,0,0,0,4-1.56,6.07,6.07,0,0,0,1.61-4.46C113.79,84.59,113.81,82.54,113.81,80Z"/><path class="cls-4" d="M129.52,107.69a1.88,1.88,0,0,1-.47-1.3,2.63,2.63,0,0,1,.12-.72q2.24-6.93,3.83-12.54a15.46,15.46,0,0,1-3.55-5,59.21,59.21,0,0,1-3.4-8.29,75.87,75.87,0,0,1-2.34-8.54,2.34,2.34,0,0,1-.08-.66,1.55,1.55,0,0,1,.4-1.07,1.51,1.51,0,0,1,1.19-.46,1,1,0,0,1,.85.3,2.79,2.79,0,0,1,.41,1.07q4.15,16,7.58,18.82,2.49-11,4.11-19a2.21,2.21,0,0,1,.45-1,1.19,1.19,0,0,1,.9-.31,1.61,1.61,0,0,1,1.75,1.53,1.26,1.26,0,0,1,0,.56c-.92,4.77-1.68,8.45-2.26,11.07s-1.31,5.51-2.18,8.67c-.63,2.25-1.41,5-2.34,8.24s-1.72,5.85-2.35,7.83a2.26,2.26,0,0,1-.55,1,1.21,1.21,0,0,1-.87.33A1.48,1.48,0,0,1,129.52,107.69Z"/><path class="cls-4" d="M179.05,92.11a1.66,1.66,0,0,1,.28,1.12,2.18,2.18,0,0,1-.3,1.22,1,1,0,0,1-.84.46,3.81,3.81,0,0,1-2.46-.66,5.31,5.31,0,0,1-1.37-2.5q-1.83,3.72-6.52,3.72a7.69,7.69,0,0,1-5.34-1.83A10.17,10.17,0,0,1,159.59,89a20,20,0,0,1-.88-6,18.68,18.68,0,0,1,1.1-6.43,11.49,11.49,0,0,1,3.24-4.84,7.58,7.58,0,0,1,5.12-1.84,6.14,6.14,0,0,1,3.54,1,6.79,6.79,0,0,1,2.37,2.86l.16-1.69c0-1.25.52-1.88,1.39-1.88a1.58,1.58,0,0,1,1.24.48,1.41,1.41,0,0,1,.34,1.15l-.12,1.27c-.19,1.43-.32,2.91-.41,4.44-.08,1.29-.12,3-.12,5.2v3.52c0,1.46,0,2.54.1,3.24a4.05,4.05,0,0,0,.43,1.61,1.28,1.28,0,0,0,1.1.61A1.48,1.48,0,0,1,179.05,92.11ZM173.51,80a8.36,8.36,0,0,0-.86-4,5.29,5.29,0,0,0-2.08-2.22,4.91,4.91,0,0,0-2.32-.67,4.78,4.78,0,0,0-3.61,1.53,9.33,9.33,0,0,0-2.12,3.83,16,16,0,0,0-.67,4.54,14.17,14.17,0,0,0,1.41,6.4,4.78,4.78,0,0,0,4.62,2.83,5.43,5.43,0,0,0,4-1.56,6.15,6.15,0,0,0,1.61-4.46C173.49,84.59,173.51,82.54,173.51,80Z"/><path class="cls-4" d="M203.09,89c.19,1.46.33,2.58.41,3.36a24.22,24.22,0,0,1,.12,2.45,17.72,17.72,0,0,1-1.22,6.81,10.32,10.32,0,0,1-3.47,4.54,8.62,8.62,0,0,1-5.17,1.6,7.65,7.65,0,0,1-4-1.14,8.76,8.76,0,0,1-3-3.06,8.06,8.06,0,0,1-1.12-4.16,1.34,1.34,0,0,1,1.51-1.53,1,1,0,0,1,.75.28,1.83,1.83,0,0,1,.39.94,6.92,6.92,0,0,0,1.93,4,5.08,5.08,0,0,0,3.57,1.33,5.72,5.72,0,0,0,5-2.55,12.37,12.37,0,0,0,1.75-7.09A28.19,28.19,0,0,0,200.2,91a7.39,7.39,0,0,1-2.63,2.78,7.46,7.46,0,0,1-4,1,8.55,8.55,0,0,1-5.3-1.73,11.13,11.13,0,0,1-3.49-4.59,15.78,15.78,0,0,1-1.2-6.17,17.61,17.61,0,0,1,1.18-6.43A11.86,11.86,0,0,1,188.16,71a8,8,0,0,1,8.27-1.17,6.06,6.06,0,0,1,2.18,1.63c.43-1.56.69-2.44.77-2.65.25-.58.6-.86,1.06-.86a1.9,1.9,0,0,1,1.16.4,1.35,1.35,0,0,1,.6,1,1.67,1.67,0,0,1,0,.46c0,.14-.11.51-.26,1.12s-.35,1.52-.59,2.71l1.47,12.59Zm-6.89,1.5a8.47,8.47,0,0,0,2.33-1.73,4.42,4.42,0,0,0,1.18-2.07c-.14-1.63-.46-4.35-1-8.16l-.37-2.65a3.47,3.47,0,0,0-.93-1.4,6.09,6.09,0,0,0-1.84-1.25,5.42,5.42,0,0,0-2.32-.51,5.09,5.09,0,0,0-3.4,1.25,8.13,8.13,0,0,0-2.32,3.39,13.86,13.86,0,0,0-.09,9.25,7.41,7.41,0,0,0,2.31,3.32,5.84,5.84,0,0,0,3.79,1.25A5.72,5.72,0,0,0,196.2,90.5Z"/><path class="cls-4" d="M228.07,92.11a1.66,1.66,0,0,1,.29,1.12,2.1,2.1,0,0,1-.31,1.22.94.94,0,0,1-.83.46,3.82,3.82,0,0,1-2.47-.66,5.31,5.31,0,0,1-1.36-2.5q-1.84,3.72-6.52,3.72a7.69,7.69,0,0,1-5.34-1.83A10.27,10.27,0,0,1,208.61,89a20.27,20.27,0,0,1-.87-6,18.45,18.45,0,0,1,1.1-6.43,11.31,11.31,0,0,1,3.24-4.84,7.55,7.55,0,0,1,5.11-1.84,6.2,6.2,0,0,1,3.55,1,6.84,6.84,0,0,1,2.36,2.86l.16-1.69c.06-1.25.52-1.88,1.39-1.88a1.57,1.57,0,0,1,1.24.48,1.42,1.42,0,0,1,.35,1.15l-.12,1.27c-.19,1.43-.33,2.91-.41,4.44-.08,1.29-.12,3-.12,5.2v3.52c0,1.46,0,2.54.1,3.24a4.05,4.05,0,0,0,.43,1.61,1.26,1.26,0,0,0,1.1.61A1.45,1.45,0,0,1,228.07,92.11ZM222.53,80a8.36,8.36,0,0,0-.86-4,5.34,5.34,0,0,0-2.07-2.22,5,5,0,0,0-2.33-.67,4.74,4.74,0,0,0-3.6,1.53,9.22,9.22,0,0,0-2.12,3.83,16,16,0,0,0-.67,4.54,14.16,14.16,0,0,0,1.4,6.4,4.8,4.8,0,0,0,4.63,2.83,5.4,5.4,0,0,0,4-1.56,6.11,6.11,0,0,0,1.61-4.46C222.52,84.59,222.53,82.54,222.53,80Z"/><path class="cls-4" d="M235.81,65.26a3.53,3.53,0,0,1-.73-2.27,3.49,3.49,0,0,1,.73-2.27,2.32,2.32,0,0,1,1.88-.9,2.23,2.23,0,0,1,1.81.87,3.41,3.41,0,0,1,.72,2.25,3.51,3.51,0,0,1-.76,2.29,2.31,2.31,0,0,1-1.85.92A2.26,2.26,0,0,1,235.81,65.26Zm0,29a1.74,1.74,0,0,1-.42-1.22l.4-21.68a1.91,1.91,0,0,1,.43-1.33,1.72,1.72,0,0,1,2.32,0A2,2,0,0,1,239,71.4L238.59,93a1.89,1.89,0,0,1-.47,1.25,1.55,1.55,0,0,1-1.12.43A1.52,1.52,0,0,1,235.83,94.25Z"/><path class="cls-4" d="M263.08,81.24V93.18c0,1.19-.5,1.78-1.51,1.78s-1.63-.57-1.63-1.73v-12a19.8,19.8,0,0,0-.81-6.6,3,3,0,0,0-2.94-2.12,4.29,4.29,0,0,0-3.67,2.14,14.27,14.27,0,0,0-2,5.61,37.53,37.53,0,0,0-.37,5.77l0,7.55a1.42,1.42,0,0,1-.41,1.09,1.52,1.52,0,0,1-1.1.38,1.61,1.61,0,0,1-1.18-.4,1.47,1.47,0,0,1-.41-1.07q0-4.55-.16-11.07c-.08-2.52-.12-4.74-.12-6.68a7.23,7.23,0,0,0-.23-2,15.33,15.33,0,0,0-.87-2.06,1.5,1.5,0,0,1-.16-.72,1.89,1.89,0,0,1,1.62-1.68c.36,0,.72.32,1.11,1a13.28,13.28,0,0,1,.83,2,6.78,6.78,0,0,1,.39,2.17V75a9.84,9.84,0,0,1,2.36-4.23,5.75,5.75,0,0,1,4.32-1.68Q263.07,69.06,263.08,81.24Z"/><path class="cls-4" d="M275.77,85.22a2.39,2.39,0,0,1-.3-1.32,10.84,10.84,0,0,1,.53-3.52,11.53,11.53,0,0,1,1.28-2.73c.5-.77,1.17-1.69,2-2.78a21.72,21.72,0,0,0,2.34-3.37,7,7,0,0,0,.79-3.36,8.39,8.39,0,0,0-1.58-5.31,5,5,0,0,0-4.16-2,5.91,5.91,0,0,0-4.59,1.61,6.94,6.94,0,0,0-1.44,4.77,4.9,4.9,0,0,0,.75,2.73,2.28,2.28,0,0,0,2,1.14c.89,0,1.34.55,1.34,1.64a1.35,1.35,0,0,1-.38,1,1.42,1.42,0,0,1-1,.35,3.93,3.93,0,0,1-2.55-.94A6.62,6.62,0,0,1,269,70.59a8.34,8.34,0,0,1-.7-3.42,10,10,0,0,1,2.24-6.86,7.8,7.8,0,0,1,6.12-2.53A7.05,7.05,0,0,1,281,59.21a9,9,0,0,1,2.83,3.8,13.35,13.35,0,0,1,1,5.13,9.86,9.86,0,0,1-.94,4.51,26.32,26.32,0,0,1-2.81,4.26,23.43,23.43,0,0,0-2.42,3.54,7.32,7.32,0,0,0-.8,3.45,2.15,2.15,0,0,1-.35,1.3,1.07,1.07,0,0,1-.91.48A1,1,0,0,1,275.77,85.22Zm-.67,8.32a3.07,3.07,0,0,1-.65-2,2.74,2.74,0,0,1,.67-1.86,2,2,0,0,1,1.57-.8,1.93,1.93,0,0,1,1.51.8,2.83,2.83,0,0,1,.65,1.86,3.18,3.18,0,0,1-.63,2,1.88,1.88,0,0,1-1.53.81A2,2,0,0,1,275.1,93.54Z"/></svg>