<svg id="Layer_1" data-name="Layer 1" xmlns="http://www.w3.org/2000/svg" xmlns:xlink="http://www.w3.org/1999/xlink" width="340" height="175" viewBox="0 0 340 175"><defs><style>.cls-1{opacity:0.49;}.cls-2{fill:#eaac6e;}.cls-3{fill:none;stroke:gray;stroke-linecap:round;stroke-miterlimit:10;stroke-width:20px;stroke-dasharray:4 41;}.cls-4{fill:#fff;}</style></defs><title>retry-</title><image class="cls-1" width="335" height="174" transform="translate(33.77 18.5)" xlink:href="retry-1.png"/><rect class="cls-2" x="43.23" y="45.5" width="254.54" height="94" rx="12"/><rect class="cls-3" x="43.23" y="45.5" width="254.54" height="94" rx="12"/><image class="cls-1" width="219" height="123" transform="translate(97.77 47.5)" xlink:href="retry-2.png"/><path class="cls-4" d="M123.65,107.27a3.84,3.84,0,0,1-.51,2,1.54,1.54,0,0,1-1.41.88,2.07,2.07,0,0,1-.88-.22,3.15,3.15,0,0,1-.78-.47L103.36,96.24q-.06,4.61,0,12.79a2.37,2.37,0,0,1-.51,1.64,1.7,1.7,0,0,1-1.36.57,1.79,1.79,0,0,1-1.48-.66,3.08,3.08,0,0,1-.53-1.93V88.75q0-3.66-.1-9.2l0-3.78-.15.06a1.21,1.21,0,0,1-.45.13,1.12,1.12,0,0,1-1.09-.79,5,5,0,0,1-.32-1.86,2.87,2.87,0,0,1,1.51-2.39l.45-.25V68.9a2.44,2.44,0,0,1,.5-1.64,1.72,1.72,0,0,1,1.36-.56,1.87,1.87,0,0,1,1.31.44,1.41,1.41,0,0,1,.5,1.13v.32a16.63,16.63,0,0,1,7.46-1.77,15.67,15.67,0,0,1,7.32,1.64,11.48,11.48,0,0,1,4.83,4.6A13.69,13.69,0,0,1,124.2,80a12.78,12.78,0,0,1-1.94,7.21,12.06,12.06,0,0,1-5.13,4.41,16.53,16.53,0,0,1-7,1.48,14.53,14.53,0,0,1-4.22-.75l16.76,13A2.28,2.28,0,0,1,123.65,107.27ZM107,71.83a22.09,22.09,0,0,0-4,1.73c.06,1.6.1,2.77.1,3.53q.24,5.18.3,10.77a19.27,19.27,0,0,0,6.34,1,11.48,11.48,0,0,0,7.5-2.27A7.75,7.75,0,0,0,120,80.18a8.47,8.47,0,0,0-2.59-6.4,9.42,9.42,0,0,0-6.77-2.49A12.67,12.67,0,0,0,107,71.83Z"/><path class="cls-4" d="M136.16,108.94a14,14,0,0,1-4.54-5.92,21.84,21.84,0,0,1,.08-16.26,14.17,14.17,0,0,1,4.58-6,11.74,11.74,0,0,1,13-.48,11.72,11.72,0,0,1,4.23,4.83,15.89,15.89,0,0,1,1.51,7,7.33,7.33,0,0,1-.35,2.68c-.24.52-.83.81-1.77.85l-19.18.5a11.77,11.77,0,0,0,1.16,4.92,11.38,11.38,0,0,0,3.3,4.22,7.77,7.77,0,0,0,5,1.7,7.79,7.79,0,0,0,6-2.58,30.91,30.91,0,0,0,2.06-2.84,1.22,1.22,0,0,1,1.11-.57,1.65,1.65,0,0,1,1.23.63,2.07,2.07,0,0,1,.58,1.45,2.67,2.67,0,0,1-.4,1.33,18.41,18.41,0,0,1-3.9,4.72,9.78,9.78,0,0,1-6.52,2A11.55,11.55,0,0,1,136.16,108.94Zm15.07-17c.34,0,.51-.3.51-.89a8.22,8.22,0,0,0-2.42-6.14,8.37,8.37,0,0,0-6.09-2.36,7.65,7.65,0,0,0-4.94,1.76,12.81,12.81,0,0,0-3.37,4.16,9.49,9.49,0,0,0-1.21,4Z"/><path class="cls-4" d="M177.53,101.19a3.46,3.46,0,0,1,.38,1.92,8.89,8.89,0,0,1-1.73,5.54,5.37,5.37,0,0,1-4.46,2.27c-2.52,0-4.32-1.38-5.41-4.16s-1.64-7.07-1.64-12.91c0-2.18.09-4.68.25-7.5L161.8,86c-1-.13-1.51-.82-1.51-2.08s.49-1.89,1.46-1.89q.41,0,1.71.12a15,15,0,0,0,1.72.13q.34-4.66,1.2-11.72a2.54,2.54,0,0,1,.53-1.42,1.82,1.82,0,0,1,1.39-.47,1.92,1.92,0,0,1,1.51.63,2,2,0,0,1,.45,1.58L170,73q-.75,7.31-1,9.57l4,.13a1.5,1.5,0,0,1,1.13.38,1.84,1.84,0,0,1,.38,1.32,2.48,2.48,0,0,1-.38,1.61,2.11,2.11,0,0,1-1.43.47c-1,0-2.39.06-4,.06-.17,2.65-.25,5.08-.25,7.31a45.71,45.71,0,0,0,.78,9.57c.52,2.32,1.47,3.47,2.84,3.47a2,2,0,0,0,1.77-1.07,7,7,0,0,0,.75-3.21,3.2,3.2,0,0,1,.33-1.48c.18-.32.61-.48,1.28-.48A1.44,1.44,0,0,1,177.53,101.19Z"/><path class="cls-4" d="M200.92,81.09a10.43,10.43,0,0,1,1.81,6.21,8.23,8.23,0,0,1-1.66,5.45,5.33,5.33,0,0,1-4.28,2,2.15,2.15,0,0,1-1.43-.38,1.77,1.77,0,0,1-.43-1.38c0-1.09.42-1.66,1.26-1.7,2.18-.26,3.27-1.6,3.27-4a6.26,6.26,0,0,0-.86-3.34,3,3,0,0,0-2.77-1.38,4.21,4.21,0,0,0-3.49,2.14A17.31,17.31,0,0,0,190,90a29.83,29.83,0,0,0-1,6.27c-.2,3.87-.3,7.52-.3,11a9.75,9.75,0,0,1-.38,3.4,1.49,1.49,0,0,1-1.49.82,1.65,1.65,0,0,1-1.53-.67,4.41,4.41,0,0,1-.43-2.3l-.05-12q0-4.16-.5-11-.3-4-.36-5.67a2,2,0,0,1,.46-1.54,1.82,1.82,0,0,1,1.41-.54c1,0,1.59.63,1.66,1.89q.3,4,.35,7.75a13.51,13.51,0,0,1,3-6.49,6.63,6.63,0,0,1,5.08-2.33A5.84,5.84,0,0,1,200.92,81.09Z"/><path class="cls-4" d="M215,126.58a2.34,2.34,0,0,1-.58-1.61,3.12,3.12,0,0,1,.15-.88q2.77-8.57,4.73-15.5-2.06-1.64-4.38-6.17a74.05,74.05,0,0,1-4.2-10.24,95.17,95.17,0,0,1-2.89-10.55,3.07,3.07,0,0,1-.11-.82,1.88,1.88,0,0,1,.51-1.32,1.83,1.83,0,0,1,1.46-.57,1.25,1.25,0,0,1,1,.38,3.24,3.24,0,0,1,.51,1.32q5.13,19.78,9.36,23.25,3.08-13.62,5.09-23.5a2.65,2.65,0,0,1,.55-1.26,1.41,1.41,0,0,1,1.11-.38,2,2,0,0,1,2.16,1.89,1.74,1.74,0,0,1,0,.69q-1.71,8.82-2.79,13.67c-.73,3.24-1.62,6.81-2.7,10.71q-1.16,4.16-2.89,10.18t-2.89,9.67a2.88,2.88,0,0,1-.68,1.29,1.54,1.54,0,0,1-1.09.41A1.82,1.82,0,0,1,215,126.58Z"/><path class="cls-4" d="M244.34,98.83a3,3,0,0,1-.38-1.64,13.8,13.8,0,0,1,.65-4.35,14.85,14.85,0,0,1,1.59-3.37c.62-.94,1.45-2.09,2.49-3.43a27.1,27.1,0,0,0,2.9-4.16,8.69,8.69,0,0,0,1-4.16,10.4,10.4,0,0,0-2-6.55,6.22,6.22,0,0,0-5.14-2.52q-3.87,0-5.66,2C238.61,72,238,73.92,238,76.52a6,6,0,0,0,.93,3.37,2.81,2.81,0,0,0,2.44,1.42c1.11,0,1.66.67,1.66,2a1.67,1.67,0,0,1-.47,1.26,1.77,1.77,0,0,1-1.24.44,4.84,4.84,0,0,1-3.14-1.17,8.14,8.14,0,0,1-2.3-3.11,10.45,10.45,0,0,1-.85-4.23q0-5.35,2.77-8.47a9.57,9.57,0,0,1,7.55-3.12,8.68,8.68,0,0,1,5.46,1.77,11,11,0,0,1,3.5,4.69,16.33,16.33,0,0,1,1.21,6.33,12.34,12.34,0,0,1-1.16,5.58,33.29,33.29,0,0,1-3.47,5.26,29,29,0,0,0-3,4.38,9,9,0,0,0-1,4.25,2.64,2.64,0,0,1-.43,1.6,1.32,1.32,0,0,1-1.13.6A1.18,1.18,0,0,1,244.34,98.83Zm-.83,10.26a3.79,3.79,0,0,1-.81-2.45,3.46,3.46,0,0,1,.83-2.3,2.5,2.5,0,0,1,1.94-1,2.37,2.37,0,0,1,1.86,1,3.49,3.49,0,0,1,.81,2.3,3.88,3.88,0,0,1-.78,2.45,2.3,2.3,0,0,1-1.89,1A2.4,2.4,0,0,1,243.51,109.09Z"/></svg>
