<svg id="Layer_1" data-name="Layer 1" xmlns="http://www.w3.org/2000/svg" width="351" height="128" viewBox="0 0 351 128"><defs><style>.cls-1{fill:#f7931e;stroke:gray;stroke-linecap:round;stroke-miterlimit:10;stroke-width:20px;stroke-dasharray:4 41;opacity:0.58;}.cls-2{fill:#b96e16;}</style></defs><title>settings</title><ellipse class="cls-1" cx="175.5" cy="64" rx="165.87" ry="54.1"/><path class="cls-2" d="M45.51,79.25A11.35,11.35,0,0,1,41,74.66a13,13,0,0,1-1.54-6.23,2.44,2.44,0,0,1,.5-1.63,2.16,2.16,0,0,1,1.71-.58c1.5,0,2.26.64,2.26,1.92a8.71,8.71,0,0,0,1.22,4.7,8,8,0,0,0,3.25,3,10.35,10.35,0,0,0,10.12-.58,5.45,5.45,0,0,0,2.23-4.69,5.73,5.73,0,0,0-1.22-3.75,8.75,8.75,0,0,0-3.19-2.37,40.87,40.87,0,0,0-5-1.83,44.65,44.65,0,0,1-5.62-1.94,12.47,12.47,0,0,1-4.32-3.28,8.66,8.66,0,0,1-2-6,10.42,10.42,0,0,1,1.74-5.92,11.8,11.8,0,0,1,4.64-4.06A14,14,0,0,1,52.07,40a13.55,13.55,0,0,1,6.52,1.57,12.11,12.11,0,0,1,4.58,4.11,9.71,9.71,0,0,1,1.66,5.4,2.55,2.55,0,0,1-.5,1.79,2.19,2.19,0,0,1-1.65.53,2.37,2.37,0,0,1-1.8-.53,2.08,2.08,0,0,1-.46-1.44,6.87,6.87,0,0,0-2.32-5.23,8.58,8.58,0,0,0-6-2.14,8.52,8.52,0,0,0-6,2.12,6.94,6.94,0,0,0-2.29,5.3A5,5,0,0,0,45,55a8.39,8.39,0,0,0,3.13,2.12q1.89.75,5.37,1.8A41.71,41.71,0,0,1,58.88,61a12.07,12.07,0,0,1,4.32,3.51,9.27,9.27,0,0,1,1.92,6A9.69,9.69,0,0,1,63.52,76a10.26,10.26,0,0,1-4.41,3.65A15.19,15.19,0,0,1,52.76,81,14.48,14.48,0,0,1,45.51,79.25Z"/><path class="cls-2" d="M98.55,76.2a2,2,0,0,1,.61,1.63,1.88,1.88,0,0,1-.46,1.42,2.69,2.69,0,0,1-1.28.61,53,53,0,0,1-8.76.46H86.81q-3.89,0-6.93-.12c-2-.07-4.32-.27-6.88-.58-1-.11-1.56-.75-1.56-1.91a2.48,2.48,0,0,1,.4-1.45,1.22,1.22,0,0,1,1-.58,6.85,6.85,0,0,1,1,.06,95.73,95.73,0,0,0,1-14.16h-.7a2,2,0,0,1-1.5-.52,2,2,0,0,1-.53-1.51c0-1.35.6-2,1.8-2h.93V51.09q0-4.19-.06-6.27A1.73,1.73,0,0,1,73.18,43a1.75,1.75,0,0,1,.61-1.6,4.1,4.1,0,0,1,1.71-.49c2.16-.23,5.49-.35,10-.35a98.36,98.36,0,0,1,12.07.52A3.5,3.5,0,0,1,99,41.6,1.64,1.64,0,0,1,99.51,43,2.21,2.21,0,0,1,99,44.53a1.41,1.41,0,0,1-1.34.47q-5.79-.47-10.67-.47-3.77,0-7.83.24.24,8.11.23,12.81l3.89.06c3.09.08,5.07.12,5.92.12,2.08.07,3.4.11,3.94.11q1.62,0,1.62,1.92a2.65,2.65,0,0,1-.4,1.56,1.39,1.39,0,0,1-1.22.58l-3.07,0q-2.61-.18-6.91-.18c-1.74,0-3,0-3.82-.06a131.77,131.77,0,0,1-1,14.39c2.4.19,5.39.29,9,.29,2.09,0,3.74,0,5-.12s2.7-.21,4.44-.41A2.38,2.38,0,0,1,98.55,76.2Z"/><path class="cls-2" d="M132,43.14a1.89,1.89,0,0,1-2.2,2.09c-3.52-.27-6.67-.43-9.46-.46q-.47,5.38-.75,15.6l-.06,1.21q-.4,11.83-.4,17.58a2.57,2.57,0,0,1-.56,1.88,2.48,2.48,0,0,1-1.82.56,2.32,2.32,0,0,1-1.86-.64,3.79,3.79,0,0,1-.52-2.32q0-1.8.17-6.41c.12-3.08.22-5.48.29-7.22l.18-3.37.81-16.87q-4.47.1-9.75.63a2,2,0,0,1-1.65-.43,2.15,2.15,0,0,1-.61-1.66,1.76,1.76,0,0,1,1.74-2,119.84,119.84,0,0,1,12.88-.69,113.83,113.83,0,0,1,11.54.4C131.31,41.21,132,41.9,132,43.14Z"/><path class="cls-2" d="M164.3,43.14a1.9,1.9,0,0,1-2.21,2.09c-3.52-.27-6.67-.43-9.45-.46q-.46,5.38-.76,15.6l0,1.21q-.42,11.83-.41,17.58a2.58,2.58,0,0,1-.55,1.88,2.52,2.52,0,0,1-1.83.56,2.28,2.28,0,0,1-1.85-.64,3.78,3.78,0,0,1-.53-2.32q0-1.8.18-6.41c.11-3.08.21-5.48.29-7.22l.17-3.37.81-16.87q-4.46.1-9.74.63a2,2,0,0,1-1.65-.43,2.12,2.12,0,0,1-.61-1.66,1.76,1.76,0,0,1,1.74-2,119.52,119.52,0,0,1,12.87-.69,113.92,113.92,0,0,1,11.55.4C163.62,41.21,164.3,41.9,164.3,43.14Z"/><path class="cls-2" d="M189.87,78.7a1.81,1.81,0,0,1-2,2.08l-17.57-.23c-1.2,0-1.8-.73-1.8-2.09a1.93,1.93,0,0,1,.55-1.53,2,2,0,0,1,1.36-.5l6.62.12q1-16.71,1-32.48c-1.74,0-4,.15-6.79.35l-1.56.11a1.3,1.3,0,0,1-1-.58,2.26,2.26,0,0,1-.47-1.5,1.94,1.94,0,0,1,1.86-2c.69-.12,2.18-.24,4.46-.35s4.51-.18,6.67-.18a47.09,47.09,0,0,1,6.91.35,3.1,3.1,0,0,1,1.33.55,1.76,1.76,0,0,1,.46,1.42,2.07,2.07,0,0,1-.55,1.54,1.82,1.82,0,0,1-1.48.49c-1.51-.11-3.28-.19-5.33-.23q0,9.41-.23,17t-.87,15.63l6.49.06A1.77,1.77,0,0,1,189.87,78.7Z"/><path class="cls-2" d="M229.31,40.27a2.38,2.38,0,0,1,.58,1.71l-.06,21.17a99.3,99.3,0,0,1-.43,10.73A13.69,13.69,0,0,1,228.12,79a2.57,2.57,0,0,1-2.29,1.36,5.46,5.46,0,0,1-3.65-1.83,32.94,32.94,0,0,1-4.29-5.33q-2.38-3.51-6.91-10.65-4.23-6.72-6.4-10.06T200.83,47q0,3.95.06,6.32L201,61,201,78.58a1.65,1.65,0,0,1-.64,1.3,2.4,2.4,0,0,1-1.62.56,2.44,2.44,0,0,1-1.6-.56,1.65,1.65,0,0,1-.67-1.3V61q0-5.52,0-8.59l-.06-8.64A5.12,5.12,0,0,1,197,41a2.22,2.22,0,0,1,2-.9,4.73,4.73,0,0,1,3.13,1.39,20.55,20.55,0,0,1,3.22,3.83q1.65,2.43,4.84,7.54-.46-.81,3.08,5,7.19,11.49,11.48,17a90.75,90.75,0,0,0,.58-11.72V41.69a1.89,1.89,0,0,1,.61-1.48,2.42,2.42,0,0,1,1.65-.55A2.26,2.26,0,0,1,229.31,40.27Z"/><path class="cls-2" d="M275.48,62.4a1.89,1.89,0,0,1-2.15,2l-1.5-.06q-.3,8.05-4,12.32t-11,4.27a19.53,19.53,0,0,1-10.35-2.73,18.37,18.37,0,0,1-6.9-7.31,21.17,21.17,0,0,1-2.41-10,20.82,20.82,0,0,1,2.44-10,18.62,18.62,0,0,1,6.78-7.22,18.36,18.36,0,0,1,9.8-2.66,16.37,16.37,0,0,1,7.11,1.42A14.48,14.48,0,0,1,268.17,46V44.82a1.89,1.89,0,0,1,.64-1.53,2.48,2.48,0,0,1,1.68-.55,2.57,2.57,0,0,1,1.6.46,1.38,1.38,0,0,1,.61,1.1c0,2.75-.22,4.56-.64,5.45A2.25,2.25,0,0,1,269.8,51a2.57,2.57,0,0,1-1.16-.26,6.28,6.28,0,0,1-1.34-1c-1.16-1-2.16-1.87-3-2.49a11.62,11.62,0,0,0-3.05-1.54,13.11,13.11,0,0,0-4.2-.61A15.07,15.07,0,0,0,249,47.26a14.69,14.69,0,0,0-5.39,5.8,17.67,17.67,0,0,0,0,16A14.34,14.34,0,0,0,249,74.75a14.89,14.89,0,0,0,7.85,2.09c3.52,0,6.14-1,7.86-3.13s2.66-5.18,2.82-9.28l-8.18-.18c-1.43,0-2.15-.71-2.15-2a1.94,1.94,0,0,1,.67-1.59,2.21,2.21,0,0,1,1.59-.5l13.81.3C274.73,60.43,275.48,61.08,275.48,62.4Z"/><path class="cls-2" d="M287.2,79.25a11.38,11.38,0,0,1-4.56-4.59,13,13,0,0,1-1.53-6.23,2.44,2.44,0,0,1,.49-1.63,2.17,2.17,0,0,1,1.71-.58c1.51,0,2.26.64,2.26,1.92a8.8,8.8,0,0,0,1.22,4.7,8,8,0,0,0,3.25,3,10.35,10.35,0,0,0,10.12-.58,5.43,5.43,0,0,0,2.23-4.69,5.68,5.68,0,0,0-1.22-3.75A8.75,8.75,0,0,0,298,64.46a40.65,40.65,0,0,0-5-1.83,44.85,44.85,0,0,1-5.63-1.94A12.57,12.57,0,0,1,283,57.41a8.7,8.7,0,0,1-2-6,10.42,10.42,0,0,1,1.74-5.92,11.86,11.86,0,0,1,4.64-4.06A14,14,0,0,1,293.75,40a13.52,13.52,0,0,1,6.52,1.57,12.14,12.14,0,0,1,4.59,4.11,9.78,9.78,0,0,1,1.65,5.4,2.61,2.61,0,0,1-.49,1.79,2.2,2.2,0,0,1-1.66.53,2.33,2.33,0,0,1-1.79-.53,2.08,2.08,0,0,1-.47-1.44,6.87,6.87,0,0,0-2.32-5.23,8.58,8.58,0,0,0-6-2.14,8.47,8.47,0,0,0-6,2.12,6.91,6.91,0,0,0-2.29,5.3A5,5,0,0,0,286.7,55a8.39,8.39,0,0,0,3.13,2.12q1.89.75,5.37,1.8A41.71,41.71,0,0,1,300.56,61a12.18,12.18,0,0,1,4.33,3.51,9.32,9.32,0,0,1,1.91,6A9.69,9.69,0,0,1,305.21,76a10.38,10.38,0,0,1-4.41,3.65A15.26,15.26,0,0,1,294.45,81,14.45,14.45,0,0,1,287.2,79.25Z"/></svg>
