<svg id="Layer_1" data-name="Layer 1" xmlns="http://www.w3.org/2000/svg" width="318" height="200" viewBox="0 0 318 200"><defs><style>.cls-1{fill:#f7931e;stroke:gray;stroke-linecap:round;stroke-miterlimit:10;stroke-width:20px;stroke-dasharray:4 41;opacity:0.58;}.cls-2{fill:#b96e16;}</style></defs><title>tid</title><ellipse class="cls-1" cx="159" cy="99" rx="149.21" ry="90.5"/><path class="cls-2" d="M59.17,119.2a27.1,27.1,0,0,1-7.81-11.77,46,46,0,0,1-2.61-15.61,57.75,57.75,0,0,1,2.57-17.13A33.23,33.23,0,0,1,59.08,61a17.09,17.09,0,0,1,12.77-5.36,17.69,17.69,0,0,1,13,5.2,31.72,31.72,0,0,1,7.81,13.51A58.73,58.73,0,0,1,95.2,91.82a44.17,44.17,0,0,1-2.78,15.82,27,27,0,0,1-8.1,11.67,19.4,19.4,0,0,1-12.64,4.36A18.56,18.56,0,0,1,59.17,119.2Zm21.62-5.57a20.34,20.34,0,0,0,5.92-9,38.1,38.1,0,0,0,2-12.77,50.07,50.07,0,0,0-2-14.5,27.2,27.2,0,0,0-5.79-10.83,11.75,11.75,0,0,0-8.9-4.1,11.88,11.88,0,0,0-9,4.16,27,27,0,0,0-5.8,10.93,51.27,51.27,0,0,0-2,14.34,39.4,39.4,0,0,0,1.93,12.67,21.06,21.06,0,0,0,5.63,9.09,12.54,12.54,0,0,0,8.73,3.36A13.85,13.85,0,0,0,80.79,113.63Z"/><path class="cls-2" d="M111,119.2a27.19,27.19,0,0,1-7.81-11.77,46.28,46.28,0,0,1-2.6-15.61,57.75,57.75,0,0,1,2.56-17.13A33.36,33.36,0,0,1,110.9,61a17.09,17.09,0,0,1,12.77-5.36,17.69,17.69,0,0,1,13,5.2,31.82,31.82,0,0,1,7.81,13.51A58.73,58.73,0,0,1,147,91.82a44.17,44.17,0,0,1-2.77,15.82,27.2,27.2,0,0,1-8.1,11.67,19.4,19.4,0,0,1-12.64,4.36A18.6,18.6,0,0,1,111,119.2Zm21.63-5.57a20.43,20.43,0,0,0,5.92-9,38.35,38.35,0,0,0,2-12.77,50.41,50.41,0,0,0-2-14.5,27.32,27.32,0,0,0-5.79-10.83,11.8,11.8,0,0,0-17.93.06A27,27,0,0,0,109,77.48a50.91,50.91,0,0,0-2,14.34A39.4,39.4,0,0,0,109,104.49a21.06,21.06,0,0,0,5.63,9.09,12.54,12.54,0,0,0,8.73,3.36A13.87,13.87,0,0,0,132.61,113.63Z"/><path class="cls-2" d="M158.43,122.88a7.12,7.12,0,0,1-1.34-4.47,7.33,7.33,0,0,1,1.51-4.73,4.5,4.5,0,0,1,3.61-1.89,4.32,4.32,0,0,1,3.45,2,7.49,7.49,0,0,1,1.51,4.62,6.51,6.51,0,0,1-1.56,4.36,4.63,4.63,0,0,1-3.65,1.84A4.24,4.24,0,0,1,158.43,122.88Z"/><path class="cls-2" d="M200.67,121.36a3.7,3.7,0,0,1-.83,2.52,3.1,3.1,0,0,1-2.44.94q-2.94,0-2.94-3.46V65.44q-4.53,7.36-8,12.3a1.82,1.82,0,0,1-.8.52,2.69,2.69,0,0,1-1.05.21,2.78,2.78,0,0,1-2.14-.84,3.22,3.22,0,0,1-.79-2.31,4.11,4.11,0,0,1,.33-1.47,8.24,8.24,0,0,1,.84-1.58q3-4.41,5.29-8.09l3.11-5,1.6-2.63a3.71,3.71,0,0,1,1.59-1.68,4.32,4.32,0,0,1,2-.53,4,4,0,0,1,2.94,1.21,4.57,4.57,0,0,1,1.17,3.31Z"/><path class="cls-2" d="M253,118.52a3.4,3.4,0,0,1,.89,2.41,3.44,3.44,0,0,1-.93,2.53,3,3,0,0,1-2.27.94c-.67,0-2.24-.07-4.7-.21q-8.31-.31-10.92-.31-9.15,0-15.53.42a2.58,2.58,0,0,1-2-.84,2.69,2.69,0,0,1-.59-2.21,33.48,33.48,0,0,1,5.8-14.66A81.21,81.21,0,0,1,236.2,91.93q10.34-9.15,10.33-19.87a15.7,15.7,0,0,0-3.28-10.3,10.46,10.46,0,0,0-8.48-4,8.9,8.9,0,0,0-5.79,2,12.71,12.71,0,0,0-3.82,5.36,19.17,19.17,0,0,0-1.31,7.09,3.32,3.32,0,0,1-.84,2.32,3.26,3.26,0,0,1-2.35.73,2.67,2.67,0,0,1-2.39-1,5.39,5.39,0,0,1-.72-3,22.51,22.51,0,0,1,2.27-9.93,18.59,18.59,0,0,1,6.39-7.46A16.19,16.19,0,0,1,235.53,51a15.63,15.63,0,0,1,9.19,2.79,18.26,18.26,0,0,1,6.18,7.62,25.84,25.84,0,0,1,2.18,10.72q0,14-13.19,25.43a73.17,73.17,0,0,0-9.78,9.83,30.78,30.78,0,0,0-5.75,10c2.18-.14,5.74-.21,10.66-.21q6,0,15.62.31A3,3,0,0,1,253,118.52Z"/></svg>
