<svg xmlns="http://www.w3.org/2000/svg" xmlns:xlink="http://www.w3.org/1999/xlink" width="1920" height="1080" viewBox="0 0 1920 1080"><defs><style>.cls-1{isolation:isolate;}.cls-2{fill:url(#linear-gradient);}.cls-20,.cls-26,.cls-3{opacity:0.75;}.cls-3{mix-blend-mode:multiply;}.cls-4{fill:#bedd8c;}.cls-5{fill:#a9ce6e;}.cls-6{fill:#b96e16;}.cls-7{fill:#1e8453;}.cls-8{fill:#398e63;}.cls-9{fill:#39b54a;}.cls-10{fill:#24962f;}.cls-11,.cls-13{opacity:0.15;}.cls-12{fill:#22b573;}.cls-14{fill:#5cb767;}.cls-15{fill:#6ecc7c;}.cls-16{fill:#ed1c24;}.cls-17,.cls-21{fill:#fff;}.cls-18{filter:url(#AI_GaussianBlur_7);}.cls-19{fill:#fcee21;}.cls-20,.cls-31{fill:#ff7bac;}.cls-21{opacity:0.5;}.cls-22{opacity:0.49;}.cls-23{fill:#f7931e;}.cls-24,.cls-35{fill:none;stroke-miterlimit:10;}.cls-24{stroke:gray;stroke-linecap:round;stroke-width:20px;stroke-dasharray:4 41;}.cls-25{fill:#eaac6e;}.cls-27{opacity:0.55;}.cls-28{fill:#00a99d;}.cls-29{fill:#998675;}.cls-30{fill:#c69c6d;}.cls-32{fill:#534741;}.cls-33{fill:#736357;}.cls-34{fill:#93628f;}.cls-35{stroke:#998675;stroke-width:4px;}.cls-36{fill:#42210b;}</style><linearGradient id="linear-gradient" x1="975.06" y1="606.23" x2="748.65" y2="-389.2" gradientUnits="userSpaceOnUse"><stop offset="0.45" stop-color="#acd9fa"/><stop offset="0.77" stop-color="#fff"/></linearGradient><filter id="AI_GaussianBlur_7" name="AI_GaussianBlur_7"><feGaussianBlur stdDeviation="7"/></filter></defs><title>winner on screen</title><g class="cls-1"><g id="Layer_1" data-name="Layer 1"><rect class="cls-2" y="1" width="1920" height="1078"/><image class="cls-3" width="1349" height="1004" transform="translate(-194 141)" xlink:href="winner%20on%20screen1.png"/><path class="cls-4" d="M-144,1081c0-491.53,276.46-890,617.5-890S1091,589.47,1091,1081"/><image class="cls-3" width="1098" height="823" transform="translate(942 232)" xlink:href="winner%20on%20screen2.png"/><path class="cls-4" d="M992,991c0-391.57,220.24-709,491.92-709s491.92,317.43,491.92,709"/><path class="cls-5" d="M7,1084C7,781.35,442.4,536,979.5,536S1952,781.35,1952,1084"/><image class="cls-3" width="361" height="596" transform="translate(3 185)" xlink:href="winner%20on%20screen3.png"/><rect class="cls-6" x="170.62" y="462.55" width="11.53" height="254.45"/><circle class="cls-7" cx="176.38" cy="358.38" r="123.38"/><circle class="cls-8" cx="176" cy="358" r="83.79"/><image class="cls-3" width="267" height="441" transform="translate(558 249)" xlink:href="winner%20on%20screen4.png"/><rect class="cls-6" x="673.34" y="418" width="22.74" height="208"/><circle class="cls-9" cx="684.5" cy="376.24" r="76.5"/><path class="cls-10" d="M761,376.24a76.5,76.5,0,0,0-76.5-76.5v153A76.5,76.5,0,0,0,761,376.24Z"/><path class="cls-11" d="M866.91,730.2c17.78,17.45-2.06,31.61-44.31,31.61s-90.91-14.16-108.69-31.61c-16.18-15.89-1.19-29,33.49-31.27L674.16,627H696.9l73.27,72C809.27,701.26,850.79,714.37,866.91,730.2Z"/><image class="cls-3" width="459" height="549" transform="translate(1175 305)" xlink:href="winner%20on%20screen5.png"/><rect class="cls-6" x="1378" y="711.65" width="38.91" height="78.35"/><polygon class="cls-12" points="1519.46 657.07 1549.44 657.07 1473.51 525.57 1473.32 525.22 1495.46 525.22 1446.53 440.46 1397.59 355.69 1348.65 440.46 1299.71 525.22 1321.86 525.22 1321.66 525.57 1245.74 657.07 1275.71 657.07 1225.17 744.61 1397.59 744.61 1570 744.61 1519.46 657.07"/><polygon class="cls-7" points="1549.44 657.07 1473.51 525.57 1473.32 525.22 1495.46 525.22 1446.53 440.46 1397.59 355.69 1397.46 355.92 1397.46 744.61 1397.59 744.61 1570 744.61 1519.46 657.07 1549.44 657.07"/><polygon class="cls-11" points="1595.88 809.83 1591.36 847.32 1621.33 847.32 1614.53 903.64 1614.51 903.79 1636.66 903.79 1632.28 940.09 1627.89 976.39 1534.4 940.09 1440.91 903.79 1463.06 903.79 1462.68 903.64 1317.63 847.32 1347.61 847.32 1251.06 809.83 1403.89 809.83 1380.03 790.39 1418.93 790.39 1442.79 809.83 1595.88 809.83"/><image class="cls-3" width="753" height="918" transform="translate(-36 226)" xlink:href="winner%20on%20screen6.png"/><rect class="cls-6" x="297" y="935" width="72" height="145"/><polygon class="cls-12" points="558.78 834 614.26 834 473.75 590.63 473.39 590 514.38 590 423.81 433.13 333.24 276.27 242.68 433.13 152.11 590 193.1 590 192.74 590.63 52.23 834 107.71 834 14.18 996 333.24 996 652.31 996 558.78 834"/><polygon class="cls-7" points="614.26 834 473.75 590.63 473.39 590 514.38 590 423.81 433.13 333.24 276.27 333 276.69 333 996 333.24 996 652.31 996 558.78 834 614.26 834"/><image class="cls-3" width="484" height="903" transform="translate(1434 241)" xlink:href="winner%20on%20screen7.png"/><rect class="cls-6" x="1642" y="577" width="55" height="503"/><circle class="cls-9" cx="1669" cy="476" r="185"/><path class="cls-10" d="M1854,476c0-102.17-82.83-185-185-185V661C1771.17,661,1854,578.17,1854,476Z"/><image class="cls-3" width="435" height="741" transform="translate(785 254)" xlink:href="winner%20on%20screen8.png"/><rect class="cls-6" x="970" y="600" width="35" height="331"/><circle class="cls-7" cx="995.5" cy="464.5" r="160.5"/><circle class="cls-8" cx="995" cy="464" r="109"/><g class="cls-13"><image class="cls-3" width="272" height="264" transform="translate(919 883)" xlink:href="winner%20on%20screen9.png"/><polygon points="1004.75 933.06 969.75 933.06 1091.34 1082.21 1126.34 1082.21 1004.75 933.06"/></g><polygon class="cls-14" points="863.18 622.13 872.09 637.56 881 653 863.18 653 845.35 653 854.26 637.56 863.18 622.13"/><polygon class="cls-15" points="894 609.26 911.82 640.13 929.65 671 894 671 858.35 671 876.18 640.13 894 609.26"/><polygon class="cls-15" points="840 608.84 857.82 639.71 875.65 670.58 840 670.58 804.35 670.58 822.18 639.71 840 608.84"/><polygon class="cls-14" points="1244.18 897.13 1253.09 912.56 1262 928 1244.18 928 1226.35 928 1235.27 912.56 1244.18 897.13"/><polygon class="cls-15" points="1275 884.26 1292.82 915.13 1310.65 946 1275 946 1239.35 946 1257.18 915.13 1275 884.26"/><polygon class="cls-15" points="1221 883.84 1238.82 914.71 1256.65 945.58 1221 945.58 1185.35 945.58 1203.18 914.71 1221 883.84"/><polygon class="cls-14" points="692.18 853.13 701.09 868.56 710 884 692.18 884 674.35 884 683.26 868.56 692.18 853.13"/><polygon class="cls-15" points="723 840.26 740.82 871.13 758.65 902 723 902 687.35 902 705.18 871.13 723 840.26"/><polygon class="cls-15" points="669 839.84 686.82 870.71 704.65 901.58 669 901.58 633.35 901.58 651.18 870.71 669 839.84"/><polygon class="cls-14" points="1820.18 884.13 1829.09 899.56 1838 915 1820.18 915 1802.35 915 1811.27 899.56 1820.18 884.13"/><polygon class="cls-15" points="1851 871.26 1868.82 902.13 1886.65 933 1851 933 1815.35 933 1833.18 902.13 1851 871.26"/><polygon class="cls-15" points="1797 870.84 1814.82 901.71 1832.65 932.58 1797 932.58 1761.35 932.58 1779.18 901.71 1797 870.84"/><circle class="cls-16" cx="1770" cy="452" r="16"/><circle class="cls-16" cx="1576" cy="400" r="16"/><circle class="cls-16" cx="1603.5" cy="512.5" r="27.5"/><circle class="cls-16" cx="1715" cy="342" r="23"/><circle class="cls-16" cx="1728.5" cy="539.5" r="13.5"/><image class="cls-3" width="242" height="157" transform="translate(392 20)" xlink:href="winner%20on%20screen10.png"/><path class="cls-17" d="M598.69,83.17c9.76,17.62,13.54,27.29,12,36.47-1.49,8.83-8.31,17.17-19.05,23.72-21.1,14.41-58.93,16.76-92-2.48-27.57-12-53.5-12.43-71.92-20.69-18.39-7-29.28-21.74-26.28-32.22,3-10.31,16-12.11,34-21.16,18-7.83,41-22.92,65-31.82,28.52-8.42,46-8.8,60.4.66C575.15,44.66,586.35,63.52,598.69,83.17Z"/><image class="cls-3" width="300" height="183" transform="translate(1210 84)" xlink:href="winner%20on%20screen11.png"/><path class="cls-17" d="M1487,169.58c4.16,23.95-7.52,38.19-31.85,53.12-24.12,13.5-60.88,27.69-102,18.3s-77.88-13.43-102-26c-24.33-11.49-36-31.43-31.85-47.59,4.15-12.84,22.44-20.36,46.55-35.4,24.33-13.39,54.49-34.31,87.29-36s63-8.4,87.3,4.63C1464.56,111.65,1482.85,142.44,1487,169.58Z"/><g class="cls-18"><path class="cls-19" d="M10,2A125.5,125.5,0,0,0,261,2"/></g><path class="cls-20" d="M1183.76,709.05a22.26,22.26,0,0,0,5.3-4.31c5.38-5.92,6.54-13.26,2.61-16.39s-11.47-.88-16.85,5a21.8,21.8,0,0,0-2.23,2.9,22.93,22.93,0,0,0-1.43-2.72c-4.15-6.73-11.13-10.22-15.6-7.8s-4.74,9.83-.59,16.56a21,21,0,0,0,5.39,5.93,22.28,22.28,0,0,0-7,3.77c-6.36,5-8.81,12.05-5.49,15.75s11.16,2.66,17.51-2.33a21.37,21.37,0,0,0,4.86-5.3,23,23,0,0,0,3.06,3.52c5.87,5.49,13.58,7.17,17.23,3.75s1.86-10.64-4-16.14A23.73,23.73,0,0,0,1183.76,709.05Z"/><ellipse cx="1171.72" cy="704.93" rx="5.53" ry="2.54"/><path class="cls-20" d="M878.76,930.05a22.26,22.26,0,0,0,5.3-4.31c5.38-5.92,6.54-13.26,2.61-16.39s-11.47-.88-16.85,5a21.8,21.8,0,0,0-2.23,2.9,22.93,22.93,0,0,0-1.43-2.72c-4.15-6.73-11.13-10.22-15.6-7.8s-4.74,9.83-.59,16.56a21,21,0,0,0,5.39,5.93,22.28,22.28,0,0,0-7,3.77c-6.36,5-8.81,12.05-5.49,15.75s11.16,2.66,17.51-2.33a21.37,21.37,0,0,0,4.86-5.3,23,23,0,0,0,3.06,3.52c5.87,5.49,13.58,7.17,17.23,3.75s1.86-10.64-4-16.14A23.73,23.73,0,0,0,878.76,930.05Z"/><ellipse cx="866.72" cy="925.93" rx="5.53" ry="2.54"/><rect class="cls-21" y="-1" width="1920" height="1082"/><image class="cls-22" width="1053" height="924" transform="translate(518 67)" xlink:href="winner%20on%20screen12.png"/><path class="cls-23" d="M1498.54,667Q1360.06,804.84,1230.36,937.3a3065.13,3065.13,0,0,0-420.15-39.22c-92-94.6-186.49-178.91-282.06-252.65Q565.34,478.86,604.36,306,799.06,195.94,1002,95.68c138.23,40.31,275.39,94.12,409.48,161.06Q1457.78,456.84,1498.54,667Z"/><path class="cls-24" d="M1498.54,667Q1360.06,804.84,1230.36,937.3a3065.13,3065.13,0,0,0-420.15-39.22c-92-94.6-186.49-178.91-282.06-252.65Q565.34,478.86,604.36,306,799.06,195.94,1002,95.68c138.23,40.31,275.39,94.12,409.48,161.06Q1457.78,456.84,1498.54,667Z"/><image class="cls-22" width="565" height="269" transform="translate(749 323)" xlink:href="winner%20on%20screen13.png"/><path class="cls-17" d="M855,392.4l-6.3,98.82-32,3.11L806.2,444.11l-3.57,47.52-32,3.68-20.12-95.54,27.77-5.08,9.78,58.22,3.43-59.15,22-1.56,13,58.71.32-59.65Z"/><path class="cls-17" d="M888.43,388.62l.58,96.63-23.71,3.24-6.75-95.77Z"/><path class="cls-17" d="M969,381.09l2.69,96.06-29.33,5.48-19.42-50.16,1.2,52.43-25.39,1.8-5-100.29,28.1-3.69,23.12,49.47-2.49-48.09Z"/><path class="cls-17" d="M1050.27,375.36l2.69,96.05-29.33,5.48-19.42-50.16,1.21,52.44L980,481l-5-100.29,28.1-3.69,23.12,49.48-2.49-48.09Z"/><path class="cls-17" d="M1108.24,370.7q.13,6.66.31,13.18t.19,13.19l-23.82,3.24.07,8.94,16.81-1.19.31,22-16.88,1.9.16,10.35,14-1,9.93-.71q.21,7.8.38,15.49t.44,15.4l-48.55,4.85-5.38-102Z"/><path class="cls-17" d="M1178.68,399.65a60.81,60.81,0,0,1,0,10.05,35.12,35.12,0,0,1-1.82,8.4,30,30,0,0,1-3.74,7.22,40.58,40.58,0,0,1-5.84,6.51l15.55,29-25,8L1147,439.36l-7,.78,1,29.45-24.26,1.72q-.85-16.12-1.73-32.11t-1.67-32.1q-.47-8.13-.91-16.12t-.69-16.13a63.9,63.9,0,0,1,7.58-3.59,60.46,60.46,0,0,1,7.57-2.42,71.2,71.2,0,0,1,7.78-1.47q4-.53,8.14-.82a35.72,35.72,0,0,1,12.6,1.35,30.53,30.53,0,0,1,11.11,5.92,32.89,32.89,0,0,1,8.2,10.56A39.61,39.61,0,0,1,1178.68,399.65Zm-25.12,4.05a21.32,21.32,0,0,0-1-5.39,13.18,13.18,0,0,0-2.22-4.14,8.9,8.9,0,0,0-7.86-3.32,13.91,13.91,0,0,0-2.19.34,12,12,0,0,0-2,.67l1,26.34,1.35-.1a16.47,16.47,0,0,0,4.89-1.12,13.49,13.49,0,0,0,4.34-2.72,12.46,12.46,0,0,0,3-4.4A13.38,13.38,0,0,0,1153.56,403.7Z"/><path class="cls-17" d="M1207.63,360.56l.62,74.63-20.89,1.47L1180,362.51Zm3,96.31a17.09,17.09,0,0,1-.55,5.86,16.28,16.28,0,0,1-2.23,4.88,12.28,12.28,0,0,1-3.53,3.44,9.67,9.67,0,0,1-9.2.65,12.16,12.16,0,0,1-4-2.91,15.72,15.72,0,0,1-2.87-4.52,17.56,17.56,0,0,1-1.34-5.72,18.12,18.12,0,0,1,.52-5.86,15.53,15.53,0,0,1,2.21-4.95,12.76,12.76,0,0,1,3.52-3.47,9.42,9.42,0,0,1,9.2-.65,12.86,12.86,0,0,1,4,2.94,15.84,15.84,0,0,1,2.9,4.59A17.43,17.43,0,0,1,1210.68,456.87Z"/><path class="cls-17" d="M1239.91,358.28l.62,74.63-20.88,1.47-7.39-74.15Zm3,96.32a16.89,16.89,0,0,1-.55,5.86,16,16,0,0,1-2.23,4.87,12.45,12.45,0,0,1-3.53,3.45,9.75,9.75,0,0,1-9.2.65,12.34,12.34,0,0,1-4-2.92,15.8,15.8,0,0,1-2.87-4.52,17.56,17.56,0,0,1-1.34-5.72,18.15,18.15,0,0,1,.52-5.86,15.6,15.6,0,0,1,2.21-4.94,12.67,12.67,0,0,1,3.52-3.48,9.43,9.43,0,0,1,4.55-1.53,9.26,9.26,0,0,1,4.65.88,12.74,12.74,0,0,1,4,3,15.88,15.88,0,0,1,2.91,4.58A17.67,17.67,0,0,1,1243,454.6Z"/><image class="cls-22" width="349" height="180" transform="translate(873 565)" xlink:href="winner%20on%20screen14.png"/><rect class="cls-25" x="882.2" y="592.26" width="267.94" height="98.95" rx="12"/><rect class="cls-24" x="882.2" y="592.26" width="267.94" height="98.95" rx="12"/><path class="cls-17" d="M921.61,617.26a11,11,0,0,1,4.21,4.13,11.89,11.89,0,0,1,1.59,6.2,11.46,11.46,0,0,1-1.38,5.68,9.6,9.6,0,0,1-3.81,3.8,11.27,11.27,0,0,1-5.52,1.33,10.55,10.55,0,0,1-5.91-1.58l-.13,13.36a2.2,2.2,0,0,1-.42,1.43,1.45,1.45,0,0,1-1.16.51,1.5,1.5,0,0,1-1.21-.51,2.11,2.11,0,0,1-.43-1.38c0-1.56,0-3.88.09-6.94q.08-4.89.08-7.75,0-5.25-.17-11.37c0-.24,0-.6,0-1.07l-.12.1a1.35,1.35,0,0,1-.69.25,1,1,0,0,1-.92-.68,3.57,3.57,0,0,1-.34-1.61,1.48,1.48,0,0,1,.32-1,4.83,4.83,0,0,1,1-.79l.69-.51v-.81a3,3,0,0,1,.41-1.74,1.46,1.46,0,0,1,1.26-.56,1.88,1.88,0,0,1,1.14.31,1,1,0,0,1,.41.82v.1a13,13,0,0,1,5.38-1.18A11.59,11.59,0,0,1,921.61,617.26Zm-1.39,16.8a6.81,6.81,0,0,0,2.75-2.7,7.9,7.9,0,0,0,1-3.93,8,8,0,0,0-1.1-4.18,7.9,7.9,0,0,0-2.91-2.86,8,8,0,0,0-4-1,11.41,11.41,0,0,0-5.38,1.79c.06,2.38.08,3.94.08,4.69s0,1.94.09,3.57c0,2,.06,3.33,0,4a8.92,8.92,0,0,0,5.34,1.63A8.36,8.36,0,0,0,920.22,634.06Z"/><path class="cls-17" d="M932.41,650.84a1.84,1.84,0,0,1-.43-1.32l-.25-36.32a1.93,1.93,0,0,1,.45-1.35,1.54,1.54,0,0,1,1.18-.48,1.37,1.37,0,0,1,1.1.48,2,2,0,0,1,.41,1.3l.2,36.37a1.88,1.88,0,0,1-.42,1.32,1.46,1.46,0,0,1-1.12.46A1.43,1.43,0,0,1,932.41,650.84Z"/><path class="cls-17" d="M961.56,648.85a1.67,1.67,0,0,1,.29,1.12,2.16,2.16,0,0,1-.31,1.23,1,1,0,0,1-.83.46,3.76,3.76,0,0,1-2.47-.67,5.27,5.27,0,0,1-1.36-2.49q-1.85,3.72-6.52,3.72a7.65,7.65,0,0,1-5.34-1.84,10.24,10.24,0,0,1-2.92-4.66,20.34,20.34,0,0,1-.87-6,18.39,18.39,0,0,1,1.1-6.42,11.35,11.35,0,0,1,3.24-4.85,7.59,7.59,0,0,1,5.11-1.83,6.2,6.2,0,0,1,3.55,1,6.88,6.88,0,0,1,2.36,2.85l.16-1.68c.06-1.26.52-1.89,1.39-1.89a1.54,1.54,0,0,1,1.24.49,1.38,1.38,0,0,1,.35,1.14l-.12,1.28c-.19,1.43-.33,2.91-.41,4.44-.08,1.29-.12,3-.12,5.2V643c0,1.46,0,2.54.1,3.24a4,4,0,0,0,.43,1.6,1.24,1.24,0,0,0,1.1.61A1.51,1.51,0,0,1,961.56,648.85ZM956,636.77a8.41,8.41,0,0,0-.85-4.06,5.42,5.42,0,0,0-2.08-2.22,4.93,4.93,0,0,0-2.33-.66,4.74,4.74,0,0,0-3.6,1.53,9.18,9.18,0,0,0-2.12,3.82,16.06,16.06,0,0,0-.67,4.54,14.13,14.13,0,0,0,1.4,6.4A4.8,4.8,0,0,0,950.4,649a5.4,5.4,0,0,0,4-1.55,6.14,6.14,0,0,0,1.61-4.46Q956,640.54,956,636.77Z"/><path class="cls-17" d="M971.73,664.43a1.91,1.91,0,0,1-.47-1.3,2.57,2.57,0,0,1,.12-.71q2.25-6.95,3.84-12.55a15.34,15.34,0,0,1-3.55-5,59.06,59.06,0,0,1-3.4-8.28,79,79,0,0,1-2.35-8.55,2.71,2.71,0,0,1-.08-.66,1.57,1.57,0,0,1,.41-1.07,1.49,1.49,0,0,1,1.18-.46,1,1,0,0,1,.86.31,2.72,2.72,0,0,1,.41,1.07q4.15,16,7.58,18.82,2.47-11,4.11-19a2.32,2.32,0,0,1,.45-1,1.19,1.19,0,0,1,.9-.3,1.61,1.61,0,0,1,1.75,1.53,1.67,1.67,0,0,1,0,.56q-1.4,7.14-2.26,11.07c-.59,2.61-1.31,5.5-2.19,8.67-.62,2.24-1.4,5-2.34,8.23s-1.72,5.86-2.34,7.83a2.34,2.34,0,0,1-.55,1,1.22,1.22,0,0,1-.88.33A1.47,1.47,0,0,1,971.73,664.43Z"/><path class="cls-17" d="M1021.26,648.85a1.67,1.67,0,0,1,.29,1.12,2.16,2.16,0,0,1-.31,1.23,1,1,0,0,1-.83.46,3.76,3.76,0,0,1-2.47-.67,5.27,5.27,0,0,1-1.36-2.49c-1.22,2.48-3.4,3.72-6.52,3.72a7.65,7.65,0,0,1-5.34-1.84,10.14,10.14,0,0,1-2.91-4.66,20,20,0,0,1-.88-6,18.62,18.62,0,0,1,1.1-6.42,11.35,11.35,0,0,1,3.24-4.85,7.61,7.61,0,0,1,5.11-1.83,6.2,6.2,0,0,1,3.55,1,6.88,6.88,0,0,1,2.36,2.85l.17-1.68q.07-1.89,1.38-1.89a1.54,1.54,0,0,1,1.24.49,1.35,1.35,0,0,1,.35,1.14l-.12,1.28c-.19,1.43-.33,2.91-.41,4.44-.08,1.29-.12,3-.12,5.2V643c0,1.46,0,2.54.1,3.24a4,4,0,0,0,.43,1.6,1.25,1.25,0,0,0,1.1.61A1.51,1.51,0,0,1,1021.26,648.85Zm-5.54-12.08a8.41,8.41,0,0,0-.85-4.06,5.36,5.36,0,0,0-2.08-2.22,4.93,4.93,0,0,0-2.33-.66,4.74,4.74,0,0,0-3.6,1.53,9.18,9.18,0,0,0-2.12,3.82,16.06,16.06,0,0,0-.67,4.54,14.27,14.27,0,0,0,1.4,6.4,4.8,4.8,0,0,0,4.63,2.83,5.38,5.38,0,0,0,4-1.55,6.14,6.14,0,0,0,1.61-4.46Q1015.73,640.54,1015.72,636.77Z"/><path class="cls-17" d="M1045.31,645.74c.19,1.46.32,2.59.41,3.37a24.07,24.07,0,0,1,.12,2.45,17.64,17.64,0,0,1-1.22,6.8,10.26,10.26,0,0,1-3.47,4.54,8.65,8.65,0,0,1-5.17,1.61,7.57,7.57,0,0,1-4-1.15,8.52,8.52,0,0,1-3-3.06,8,8,0,0,1-1.12-4.15,1.34,1.34,0,0,1,1.5-1.53,1,1,0,0,1,.76.28,1.89,1.89,0,0,1,.38.94,7.05,7.05,0,0,0,1.94,4,5.08,5.08,0,0,0,3.57,1.32,5.72,5.72,0,0,0,5-2.55,12.35,12.35,0,0,0,1.75-7.08,30.06,30.06,0,0,0-.32-3.83,7.25,7.25,0,0,1-6.61,3.83,8.47,8.47,0,0,1-5.29-1.74,10.84,10.84,0,0,1-3.49-4.59,15.75,15.75,0,0,1-1.2-6.17,17.4,17.4,0,0,1,1.18-6.43,11.9,11.9,0,0,1,3.36-4.84,7.62,7.62,0,0,1,5-1.84,7.42,7.42,0,0,1,3.24.67,6,6,0,0,1,2.18,1.63c.43-1.57.69-2.45.77-2.65.24-.58.6-.87,1.06-.87a1.93,1.93,0,0,1,1.16.41,1.34,1.34,0,0,1,.59,1,1.86,1.86,0,0,1,0,.46l-.26,1.12c-.15.61-.35,1.51-.59,2.7L1045,643Zm-6.89,1.51a8.26,8.26,0,0,0,2.32-1.74,4.29,4.29,0,0,0,1.19-2.06q-.21-2.46-1-8.16l-.37-2.66a3.58,3.58,0,0,0-.94-1.4,6.22,6.22,0,0,0-1.83-1.25,5.45,5.45,0,0,0-2.32-.51,5.19,5.19,0,0,0-3.41,1.25,8.36,8.36,0,0,0-2.32,3.39,14,14,0,0,0-.08,9.26,7.36,7.36,0,0,0,2.3,3.31,5.81,5.81,0,0,0,3.79,1.25A5.9,5.9,0,0,0,1038.42,647.25Z"/><path class="cls-17" d="M1070.29,648.85a1.68,1.68,0,0,1,.28,1.12,2.24,2.24,0,0,1-.3,1.23,1,1,0,0,1-.84.46A3.75,3.75,0,0,1,1067,651a5.27,5.27,0,0,1-1.37-2.49q-1.83,3.72-6.52,3.72a7.65,7.65,0,0,1-5.34-1.84,10.14,10.14,0,0,1-2.91-4.66,20.34,20.34,0,0,1-.88-6,18.62,18.62,0,0,1,1.1-6.42,11.53,11.53,0,0,1,3.24-4.85,7.62,7.62,0,0,1,5.12-1.83,6.14,6.14,0,0,1,3.54,1,6.82,6.82,0,0,1,2.37,2.85l.16-1.68c0-1.26.52-1.89,1.39-1.89a1.56,1.56,0,0,1,1.24.49,1.42,1.42,0,0,1,.35,1.14l-.13,1.28c-.19,1.43-.32,2.91-.4,4.44-.09,1.29-.13,3-.13,5.2V643c0,1.46,0,2.54.11,3.24a4,4,0,0,0,.42,1.6,1.26,1.26,0,0,0,1.1.61A1.54,1.54,0,0,1,1070.29,648.85Zm-5.54-12.08a8.41,8.41,0,0,0-.86-4.06,5.29,5.29,0,0,0-2.08-2.22,4.89,4.89,0,0,0-2.32-.66,4.78,4.78,0,0,0-3.61,1.53,9.29,9.29,0,0,0-2.12,3.82,16.42,16.42,0,0,0-.67,4.54,14.14,14.14,0,0,0,1.41,6.4,4.78,4.78,0,0,0,4.62,2.83,5.4,5.4,0,0,0,4-1.55,6.19,6.19,0,0,0,1.61-4.46C1064.73,641.34,1064.75,639.28,1064.75,636.77Z"/><path class="cls-17" d="M1078,622a3.89,3.89,0,0,1,0-4.54,2.33,2.33,0,0,1,1.88-.89,2.25,2.25,0,0,1,1.81.87,3.42,3.42,0,0,1,.71,2.24,3.53,3.53,0,0,1-.75,2.3,2.32,2.32,0,0,1-1.86.91A2.23,2.23,0,0,1,1078,622Zm0,29a1.73,1.73,0,0,1-.43-1.22l.41-21.67a1.87,1.87,0,0,1,.43-1.33,1.69,1.69,0,0,1,2.32,0,1.94,1.94,0,0,1,.43,1.38l-.41,21.62a1.85,1.85,0,0,1-.47,1.25,1.68,1.68,0,0,1-2.28,0Z"/><path class="cls-17" d="M1105.29,638v11.93c0,1.19-.5,1.79-1.5,1.79s-1.63-.58-1.63-1.74v-12a19.85,19.85,0,0,0-.82-6.61,2.94,2.94,0,0,0-2.93-2.11,4.26,4.26,0,0,0-3.67,2.14,14.27,14.27,0,0,0-2,5.61,38.76,38.76,0,0,0-.36,5.76l0,7.55a1.45,1.45,0,0,1-.41,1.1,1.56,1.56,0,0,1-1.1.38,1.6,1.6,0,0,1-1.18-.41,1.46,1.46,0,0,1-.41-1.07c0-3-.06-6.71-.16-11.07-.08-2.51-.13-4.74-.13-6.68a7.16,7.16,0,0,0-.22-2,14.9,14.9,0,0,0-.88-2.07,1.78,1.78,0,0,1,1.47-2.39c.35,0,.72.32,1.1,1a12.39,12.39,0,0,1,.84,2,7,7,0,0,1,.38,2.17v.56a10,10,0,0,1,2.37-4.24,5.72,5.72,0,0,1,4.32-1.68Q1105.3,625.8,1105.29,638Z"/><path class="cls-17" d="M1118,642a2.36,2.36,0,0,1-.31-1.33,11.16,11.16,0,0,1,.53-3.52,11.93,11.93,0,0,1,1.29-2.73c.5-.76,1.17-1.69,2-2.78a21.16,21.16,0,0,0,2.35-3.36,7,7,0,0,0,.79-3.37,8.38,8.38,0,0,0-1.59-5.3,5,5,0,0,0-4.15-2c-2.1,0-3.62.53-4.59,1.61a6.93,6.93,0,0,0-1.45,4.76,4.86,4.86,0,0,0,.76,2.73,2.26,2.26,0,0,0,2,1.15c.9,0,1.35.54,1.35,1.63a1.32,1.32,0,0,1-.39,1,1.41,1.41,0,0,1-1,.36,3.93,3.93,0,0,1-2.54-.95,6.46,6.46,0,0,1-1.86-2.52,8.43,8.43,0,0,1-.69-3.42,10,10,0,0,1,2.24-6.86,7.77,7.77,0,0,1,6.11-2.52,7.06,7.06,0,0,1,4.43,1.43,9,9,0,0,1,2.83,3.8,13.34,13.34,0,0,1,1,5.12,10,10,0,0,1-.94,4.52,26.52,26.52,0,0,1-2.81,4.25,23.62,23.62,0,0,0-2.43,3.55,7.24,7.24,0,0,0-.79,3.44,2.18,2.18,0,0,1-.35,1.3,1.07,1.07,0,0,1-.92.49A1,1,0,0,1,1118,642Zm-.67,8.31a3.06,3.06,0,0,1-.66-2,2.79,2.79,0,0,1,.68-1.86,2,2,0,0,1,1.57-.79,1.89,1.89,0,0,1,1.5.79,2.82,2.82,0,0,1,.66,1.86,3.16,3.16,0,0,1-.64,2,1.89,1.89,0,0,1-1.52.82A2,2,0,0,1,1117.32,650.28Z"/><image class="cls-26" width="318" height="277" transform="translate(856 119)" xlink:href="winner%20on%20screen15.png"/><g class="cls-27"><path class="cls-28" d="M1129,253.15c-4.09-8.92-13.71-19.93-25.91-24.13-12.24-4.57-27.06-2.34-42.77,6.74A154.54,154.54,0,0,0,1044.49,246a92.13,92.13,0,0,0,3.27-32.9,87.38,87.38,0,0,0-14.09-41.45c-7.16-10.59-15.79-19-25.64-18s-19.45,11.7-27.92,23.31c-8.36,12.2-15.57,25.16-18.18,43.75s.27,38.19,8,50c7.57,12.26,19.92,16.7,33.77,15.48,1.25-.14,2.49-.34,3.71-.59a8.93,8.93,0,0,0,.37,3.31c3.55,11.22,38.57,18.81,74.45,8.08,17.82-6,31.86-14.92,40.09-21.78C1130.56,267.89,1133.05,262.65,1129,253.15Z"/></g><path class="cls-28" d="M1106.49,247.56c-4.09-8.93-13.72-19.94-25.91-24.14-12.24-4.57-27.06-2.33-42.77,6.74A153.45,153.45,0,0,0,1022,240.43a92.13,92.13,0,0,0,3.27-32.9,87.45,87.45,0,0,0-14.09-41.44c-7.17-10.6-15.79-19-25.64-18s-19.45,11.7-27.92,23.31c-8.36,12.2-15.58,25.17-18.19,43.76s.28,38.19,8,50c7.57,12.26,19.91,16.71,33.77,15.48,1.25-.14,2.49-.33,3.71-.58a8.91,8.91,0,0,0,.37,3.3c3.55,11.23,38.57,18.81,74.45,8.08a127.84,127.84,0,0,0,40.09-21.78C1108.05,262.29,1110.53,257.05,1106.49,247.56Z"/><path class="cls-29" d="M1061,310.86,922.12,239.33a15.8,15.8,0,1,0-14.07,27.44l138.54,71.36A15.8,15.8,0,1,0,1061,310.86Z"/><path class="cls-30" d="M974.68,283.69c-1.11,10.23-5.79,13.86-7.94,9.26s-1.21-6.93.87-12.42c2.26-5.8,4.92-15.89,6.15-15.22S975.77,274.16,974.68,283.69Z"/><path class="cls-30" d="M990.08,291.46c-1.1,10.23-5.78,13.86-7.94,9.26s-1.21-6.93.88-12.42c2.25-5.8,4.91-15.89,6.15-15.22S991.18,281.93,990.08,291.46Z"/><path class="cls-30" d="M1005.73,299.29c-1.1,10.23-5.78,13.87-7.94,9.26s-1.21-6.93.88-12.42c2.25-5.8,4.92-15.89,6.15-15.22S1006.83,289.76,1005.73,299.29Z"/><rect class="cls-17" x="908.22" y="240.84" width="1.02" height="19.12" transform="translate(446.46 1071.86) rotate(-76.04)"/><path class="cls-17" d="M906,241.44c-2.53-.63-5.42,2.24-6.46,6.41l9.16,2.27C909.7,246,908.49,242.07,906,241.44Z"/><path class="cls-17" d="M915.24,243.74c-2.59-.64-5.54,2.21-6.57,6.38l9.4,2.34C919.1,248.29,917.84,244.39,915.24,243.74Z"/><ellipse cx="904.77" cy="245.74" rx="3.31" ry="1.78" transform="translate(447.98 1064.48) rotate(-76.04)"/><circle class="cls-17" cx="904.24" cy="244.16" r="0.89"/><ellipse cx="914.17" cy="248.07" rx="3.31" ry="1.78" transform="translate(452.84 1075.37) rotate(-76.04)"/><circle class="cls-17" cx="913.64" cy="246.5" r="0.89"/><circle class="cls-31" cx="918.79" cy="261.7" r="1.66"/><circle class="cls-31" cx="898.87" cy="255.17" r="1.66"/><path class="cls-32" d="M900.87,257.8c1.91,4.7,8.38,6.34,12.52,3.67,1.62-1.05.11-3.65-1.51-2.59-2.32,1.49-6.92,1.08-8.12-1.87-.72-1.77-3.62-1-2.89.79Z"/><path class="cls-32" d="M886.45,256.83a1.5,1.5,0,0,0,0-3,1.5,1.5,0,0,0,0,3Z"/><path class="cls-33" d="M909.8,240.22c-1.82-.37-3.53-.67-5.41-.89-.38-.05-.59-.18-.45-.31h0a1.74,1.74,0,0,1,.82-.35c1.51-.18,3-.3,4.71-.35.34,0,.74.43.84,1h0C910.43,239.9,910.2,240.31,909.8,240.22Z"/><path class="cls-33" d="M914.81,240.2a6.79,6.79,0,0,1,4.26,2.58,1.69,1.69,0,0,1,.27,1.47h0c-.16.41-.62.32-.92-.09a7.24,7.24,0,0,0-4.36-3.16c-.25-.05-.28-.17-.08-.37h0A1.49,1.49,0,0,1,914.81,240.2Z"/><path class="cls-34" d="M993.42,212.75c.6,12.26-4.85,30.15-12.69,40.61-7.11,10.47-12.77-8.22-12-40,.71-31.62,6.1-48.71,12.63-39.83C987.16,182.42,992.86,200.3,993.42,212.75Z"/><path class="cls-34" d="M1060.41,270.85c-19,8.4-35.76,13.44-37.05,4.82-.66-8.46,12-22.85,27.26-26.6,17-4,29.83.33,33.12,4.21C1086.25,257.33,1077.75,262.37,1060.41,270.85Z"/><path class="cls-35" d="M912.85,195.26c14.55-22.59,13.71,22,8.35,43.53"/><path class="cls-35" d="M905.93,194.59c14.54-22.59,13.71,22,8.35,43.53"/><circle class="cls-36" cx="906.09" cy="194.45" r="1.91"/><circle class="cls-36" cx="912.52" cy="196.05" r="1.91"/><path class="cls-29" d="M928.22,304.65c-1,.1-2.09.18-3.14.23-1.25.94-4.26-1.42-5.24-3.91-4.28-9.31-1.45-22.8,5.32-29.84,1.7-1.88,4.26-2.07,5.44-1l2.34,2c1.18,1,.72,2.63-.78,4.18-6.12,5.94-8.13,18.09-3.51,25.14C929.78,303.24,933.71,303.41,928.22,304.65Z"/><path class="cls-29" d="M948.32,313.59c-1,.1-2.08.18-3.13.23-1.25.94-4.27-1.42-5.25-3.91-4.27-9.32-1.44-22.8,5.32-29.85,1.7-1.87,4.27-2.06,5.45-1,.78.67,1.56,1.34,2.34,2,1.18,1,.72,2.62-.78,4.18-6.12,5.94-8.14,18.09-3.52,25.14C949.89,312.18,953.81,312.36,948.32,313.59Z"/><path class="cls-29" d="M1007.78,343.87c-1,.1-2.09.18-3.14.23-1.24.94-4.26-1.42-5.24-3.91-4.28-9.32-1.45-22.8,5.32-29.84,1.7-1.88,4.26-2.07,5.44-1l2.34,2c1.18,1,.72,2.63-.78,4.18-6.12,5.94-8.13,18.09-3.51,25.14C1009.34,342.46,1013.27,342.63,1007.78,343.87Z"/><path class="cls-29" d="M1025.66,352.25c-1,.11-2.09.19-3.14.23-1.25.95-4.26-1.42-5.25-3.9-4.27-9.32-1.44-22.8,5.33-29.85,1.7-1.87,4.26-2.07,5.44-1,.78.68,1.56,1.35,2.34,2,1.18,1,.72,2.62-.78,4.17-6.12,5.95-8.13,18.1-3.51,25.15C1027.22,350.85,1031.15,351,1025.66,352.25Z"/></g></g></svg>