<svg id="Layer_1" data-name="Layer 1" xmlns="http://www.w3.org/2000/svg" xmlns:xlink="http://www.w3.org/1999/xlink" width="1054" height="924" viewBox="0 0 1054 924"><defs><style>.cls-1{opacity:0.49;}.cls-2{fill:#f7931e;}.cls-3{fill:none;stroke:gray;stroke-linecap:round;stroke-miterlimit:10;stroke-width:20px;stroke-dasharray:4 41;}.cls-4{fill:#fff;}.cls-5{fill:#eaac6e;}</style></defs><title>winner</title><image class="cls-1" width="1054" height="924" transform="translate(35.16 -2)" xlink:href="winner1.png"/><path class="cls-2" d="M1016.38,598Q877.9,735.83,748.19,868.3a3065,3065,0,0,0-420.14-39.22c-92-94.6-186.49-178.91-282.07-252.65Q83.18,409.86,122.2,237,316.89,126.93,519.82,26.68C658,67,795.21,120.8,929.3,187.74Q975.61,387.84,1016.38,598Z"/><path class="cls-3" d="M1016.38,598Q877.9,735.83,748.19,868.3a3065,3065,0,0,0-420.14-39.22c-92-94.6-186.49-178.91-282.07-252.65Q83.18,409.86,122.2,237,316.89,126.93,519.82,26.68C658,67,795.21,120.8,929.3,187.74Q975.61,387.84,1016.38,598Z"/><image class="cls-1" width="565" height="269" transform="translate(267.16 254)" xlink:href="winner2.png"/><path class="cls-4" d="M372.79,323.4l-6.3,98.82-32,3.11L324,375.11l-3.56,47.52-32,3.67-20.12-95.53,27.77-5.08,9.78,58.22,3.42-59.15,22-1.56,13,58.71.33-59.65Z"/><path class="cls-4" d="M406.27,319.62l.58,96.63-23.71,3.24-6.76-95.77Z"/><path class="cls-4" d="M486.78,312.09l2.7,96.06-29.33,5.48-19.42-50.16,1.2,52.43-25.4,1.8-5-100.29,28.1-3.69,23.11,49.47-2.48-48.09Z"/><path class="cls-4" d="M568.1,306.36l2.7,96.05-29.33,5.48-19.42-50.16,1.2,52.44L497.86,412l-5-100.29,28.1-3.69L544,357.46l-2.48-48.09Z"/><path class="cls-4" d="M626.08,301.7q.13,6.66.3,13.18t.2,13.19l-23.82,3.24.06,8.94,16.82-1.19.3,22-16.88,1.9.17,10.35,14-1,9.94-.71q.21,7.8.38,15.49t.43,15.4l-48.54,4.85-5.38-102Z"/><path class="cls-4" d="M696.52,330.65a59.67,59.67,0,0,1-.06,10.05,35.12,35.12,0,0,1-1.81,8.4,30,30,0,0,1-3.75,7.22,40,40,0,0,1-5.83,6.51l15.54,29-25,8-10.81-29.47-7,.77,1.06,29.45-24.27,1.72q-.85-16.12-1.72-32.11t-1.67-32.1q-.46-8.13-.91-16.12t-.69-16.13a63.16,63.16,0,0,1,7.58-3.59,60.46,60.46,0,0,1,7.57-2.42,70.76,70.76,0,0,1,7.78-1.47q4-.53,8.13-.82a35.72,35.72,0,0,1,12.6,1.35,30.37,30.37,0,0,1,11.11,5.92,32.91,32.91,0,0,1,8.21,10.56A39.78,39.78,0,0,1,696.52,330.65ZM671.4,334.7a21.94,21.94,0,0,0-1-5.4,13.24,13.24,0,0,0-2.22-4.13,8.9,8.9,0,0,0-7.87-3.32,14,14,0,0,0-2.18.34,13,13,0,0,0-2.06.67l1,26.34,1.36-.1a16.34,16.34,0,0,0,4.88-1.12,13.43,13.43,0,0,0,4.35-2.72,12.46,12.46,0,0,0,3-4.4A13.52,13.52,0,0,0,671.4,334.7Z"/><path class="cls-4" d="M725.47,291.56l.61,74.63-20.88,1.47-7.39-74.15Zm3,96.32a17.05,17.05,0,0,1-.55,5.85,16.06,16.06,0,0,1-2.24,4.88,12.16,12.16,0,0,1-3.53,3.44,9.37,9.37,0,0,1-4.48,1.49,9.47,9.47,0,0,1-4.71-.84,12.06,12.06,0,0,1-4-2.91,15.51,15.51,0,0,1-2.87-4.52,17.31,17.31,0,0,1-1.34-5.72,17.85,17.85,0,0,1,.52-5.86,15.74,15.74,0,0,1,2.2-4.95,12.8,12.8,0,0,1,3.53-3.47,9.29,9.29,0,0,1,4.54-1.53,9.19,9.19,0,0,1,4.66.88,13,13,0,0,1,4,2.94,16.27,16.27,0,0,1,2.9,4.59A17.43,17.43,0,0,1,728.52,387.88Z"/><path class="cls-4" d="M757.75,289.28l.61,74.63-20.88,1.47-7.39-74.15Zm3,96.32a17.14,17.14,0,0,1-.55,5.86,16,16,0,0,1-2.24,4.87,12.2,12.2,0,0,1-3.53,3.45,9.46,9.46,0,0,1-4.48,1.48,9.57,9.57,0,0,1-4.71-.83,12.34,12.34,0,0,1-4-2.92,15.59,15.59,0,0,1-2.87-4.52,17.31,17.31,0,0,1-1.34-5.72,18.15,18.15,0,0,1,.52-5.86,15.74,15.74,0,0,1,2.2-5,12.94,12.94,0,0,1,3.53-3.47,9.39,9.39,0,0,1,4.54-1.53,9.3,9.3,0,0,1,4.66.88,12.85,12.85,0,0,1,4,3,15.86,15.86,0,0,1,2.9,4.58A17.43,17.43,0,0,1,760.8,385.6Z"/><image class="cls-1" width="349" height="180" transform="translate(390.16 496)" xlink:href="winner3.png"/><rect class="cls-5" x="400.04" y="523.26" width="267.94" height="98.95" rx="12"/><rect class="cls-3" x="400.04" y="523.26" width="267.94" height="98.95" rx="12"/><path class="cls-4" d="M439.44,548.26a11.07,11.07,0,0,1,4.22,4.13,11.89,11.89,0,0,1,1.59,6.2,11.36,11.36,0,0,1-1.39,5.68,9.48,9.48,0,0,1-3.81,3.8,11.22,11.22,0,0,1-5.52,1.33,10.57,10.57,0,0,1-5.91-1.58l-.12,13.36a2.14,2.14,0,0,1-.43,1.43,1.43,1.43,0,0,1-1.16.51,1.48,1.48,0,0,1-1.2-.51,2.05,2.05,0,0,1-.43-1.38c0-1.56,0-3.88.08-6.94.06-3.26.08-5.84.08-7.75q0-5.25-.16-11.37a9.66,9.66,0,0,1,0-1.07l-.12.1a1.39,1.39,0,0,1-.69.25,1,1,0,0,1-.92-.68,3.57,3.57,0,0,1-.35-1.61,1.49,1.49,0,0,1,.33-1,4.28,4.28,0,0,1,1-.78l.69-.52v-.81a2.94,2.94,0,0,1,.41-1.74,1.46,1.46,0,0,1,1.26-.56,1.88,1.88,0,0,1,1.14.31,1,1,0,0,1,.41.82v.1a13,13,0,0,1,5.38-1.18A11.52,11.52,0,0,1,439.44,548.26Zm-1.38,16.8a6.81,6.81,0,0,0,2.75-2.7,7.9,7.9,0,0,0,1-3.93,7.88,7.88,0,0,0-8-8,11.34,11.34,0,0,0-5.38,1.78c.05,2.38.08,3.94.08,4.69s0,1.94.08,3.57c.06,2,.07,3.33,0,4A8.92,8.92,0,0,0,434,566,8.37,8.37,0,0,0,438.06,565.06Z"/><path class="cls-4" d="M450.24,581.84a1.89,1.89,0,0,1-.43-1.32l-.24-36.32a1.93,1.93,0,0,1,.45-1.35,1.54,1.54,0,0,1,1.18-.48,1.37,1.37,0,0,1,1.1.48,2,2,0,0,1,.41,1.3l.2,36.37a1.84,1.84,0,0,1-.43,1.32,1.44,1.44,0,0,1-1.12.46A1.46,1.46,0,0,1,450.24,581.84Z"/><path class="cls-4" d="M479.4,579.85a1.67,1.67,0,0,1,.29,1.12,2.24,2.24,0,0,1-.31,1.23,1,1,0,0,1-.84.46,3.75,3.75,0,0,1-2.46-.67,5.27,5.27,0,0,1-1.37-2.49q-1.83,3.72-6.52,3.72a7.65,7.65,0,0,1-5.34-1.84,10.3,10.3,0,0,1-2.91-4.66,20.34,20.34,0,0,1-.88-6,18.62,18.62,0,0,1,1.1-6.42,11.53,11.53,0,0,1,3.24-4.85,7.64,7.64,0,0,1,5.12-1.83,6.14,6.14,0,0,1,3.54,1,6.82,6.82,0,0,1,2.37,2.85l.16-1.68c.06-1.26.52-1.89,1.39-1.89a1.56,1.56,0,0,1,1.24.49,1.42,1.42,0,0,1,.35,1.14l-.13,1.28c-.19,1.43-.32,2.91-.4,4.44-.09,1.29-.13,3-.13,5.2V574c0,1.46,0,2.54.11,3.24a4,4,0,0,0,.42,1.6,1.26,1.26,0,0,0,1.1.61A1.54,1.54,0,0,1,479.4,579.85Zm-5.54-12.08a8.41,8.41,0,0,0-.86-4.06,5.29,5.29,0,0,0-2.08-2.22,4.89,4.89,0,0,0-2.32-.66,4.78,4.78,0,0,0-3.61,1.53,9.29,9.29,0,0,0-2.12,3.82,16.42,16.42,0,0,0-.67,4.54,14.14,14.14,0,0,0,1.41,6.4,4.79,4.79,0,0,0,4.62,2.83,5.4,5.4,0,0,0,4-1.55,6.17,6.17,0,0,0,1.61-4.46C473.84,572.34,473.86,570.28,473.86,567.77Z"/><path class="cls-4" d="M489.57,595.43a1.86,1.86,0,0,1-.47-1.3,2.57,2.57,0,0,1,.12-.71q2.25-6.95,3.83-12.55a15.55,15.55,0,0,1-3.54-5,59.7,59.7,0,0,1-3.41-8.29,76.57,76.57,0,0,1-2.34-8.55,2.71,2.71,0,0,1-.08-.66,1.53,1.53,0,0,1,.41-1.07,1.47,1.47,0,0,1,1.18-.46,1,1,0,0,1,.85.31,2.57,2.57,0,0,1,.41,1.07q4.16,16,7.58,18.82,2.49-11,4.12-19a2.21,2.21,0,0,1,.45-1,1.17,1.17,0,0,1,.89-.3,1.61,1.61,0,0,1,1.75,1.53,1.26,1.26,0,0,1,0,.56q-1.38,7.14-2.26,11.07t-2.18,8.67c-.62,2.24-1.4,5-2.34,8.23s-1.72,5.86-2.35,7.83a2.24,2.24,0,0,1-.54,1,1.25,1.25,0,0,1-.88.33A1.47,1.47,0,0,1,489.57,595.43Z"/><path class="cls-4" d="M539.1,579.85a1.67,1.67,0,0,1,.29,1.12,2.24,2.24,0,0,1-.31,1.23,1,1,0,0,1-.83.46,3.76,3.76,0,0,1-2.47-.67,5.27,5.27,0,0,1-1.37-2.49q-1.83,3.72-6.52,3.72a7.61,7.61,0,0,1-5.33-1.84,10.24,10.24,0,0,1-2.92-4.66,20.34,20.34,0,0,1-.87-6,18.39,18.39,0,0,1,1.1-6.42,11.35,11.35,0,0,1,3.24-4.85,7.59,7.59,0,0,1,5.11-1.83,6.2,6.2,0,0,1,3.55,1,6.88,6.88,0,0,1,2.36,2.85l.16-1.68c.06-1.26.52-1.89,1.39-1.89a1.54,1.54,0,0,1,1.24.49,1.38,1.38,0,0,1,.35,1.14l-.12,1.28c-.2,1.43-.33,2.91-.41,4.44-.08,1.29-.13,3-.13,5.2V574c0,1.46,0,2.54.11,3.24a3.84,3.84,0,0,0,.43,1.6,1.24,1.24,0,0,0,1.1.61A1.51,1.51,0,0,1,539.1,579.85Zm-5.54-12.08a8.41,8.41,0,0,0-.86-4.06,5.29,5.29,0,0,0-2.08-2.22,4.89,4.89,0,0,0-2.32-.66,4.78,4.78,0,0,0-3.61,1.53,9.17,9.17,0,0,0-2.11,3.82,16.08,16.08,0,0,0-.68,4.54,14.14,14.14,0,0,0,1.41,6.4,4.8,4.8,0,0,0,4.63,2.83,5.4,5.4,0,0,0,4-1.55,6.17,6.17,0,0,0,1.61-4.46C533.54,572.34,533.56,570.28,533.56,567.77Z"/><path class="cls-4" d="M563.15,576.74c.18,1.46.32,2.59.4,3.37a24,24,0,0,1,.12,2.44,17.47,17.47,0,0,1-1.22,6.81A10.24,10.24,0,0,1,559,593.9a8.68,8.68,0,0,1-5.18,1.61,7.54,7.54,0,0,1-4-1.15,8.62,8.62,0,0,1-3-3.06,8.13,8.13,0,0,1-1.12-4.15,1.34,1.34,0,0,1,1.51-1.53,1,1,0,0,1,.75.28,1.8,1.8,0,0,1,.39.94,7,7,0,0,0,1.94,4,5.08,5.08,0,0,0,3.56,1.32,5.7,5.7,0,0,0,5-2.55,12.37,12.37,0,0,0,1.76-7.09,28.59,28.59,0,0,0-.33-3.82,7.24,7.24,0,0,1-2.63,2.78,7.35,7.35,0,0,1-4,1,8.49,8.49,0,0,1-5.3-1.73,10.9,10.9,0,0,1-3.48-4.59,15.75,15.75,0,0,1-1.2-6.17,17.4,17.4,0,0,1,1.18-6.43,11.8,11.8,0,0,1,3.36-4.84,7.6,7.6,0,0,1,5-1.84,7.42,7.42,0,0,1,3.24.67,5.86,5.86,0,0,1,2.18,1.63c.44-1.57.7-2.45.78-2.65.24-.58.59-.87,1.06-.87a2,2,0,0,1,1.16.41,1.37,1.37,0,0,1,.59,1,2.52,2.52,0,0,1,0,.46c0,.13-.12.51-.27,1.12s-.34,1.51-.59,2.7l1.47,12.6Zm-6.89,1.51a8.4,8.4,0,0,0,2.32-1.74,4.26,4.26,0,0,0,1.18-2.06q-.19-2.46-1-8.16l-.36-2.66a3.62,3.62,0,0,0-.94-1.4,6.35,6.35,0,0,0-1.83-1.25,5.5,5.5,0,0,0-2.33-.51,5.16,5.16,0,0,0-3.4,1.25,8.19,8.19,0,0,0-2.32,3.39,13.07,13.07,0,0,0-.84,4.8,12.74,12.74,0,0,0,.76,4.46,7.36,7.36,0,0,0,2.3,3.31,6,6,0,0,0,6.44.57Z"/><path class="cls-4" d="M588.13,579.85a1.68,1.68,0,0,1,.28,1.12,2.24,2.24,0,0,1-.3,1.23,1,1,0,0,1-.84.46,3.78,3.78,0,0,1-2.47-.67,5.27,5.27,0,0,1-1.36-2.49c-1.22,2.48-3.4,3.72-6.52,3.72a7.65,7.65,0,0,1-5.34-1.84,10.14,10.14,0,0,1-2.91-4.66,20,20,0,0,1-.88-6,18.62,18.62,0,0,1,1.1-6.42,11.35,11.35,0,0,1,3.24-4.85,7.61,7.61,0,0,1,5.11-1.83,6.2,6.2,0,0,1,3.55,1,6.88,6.88,0,0,1,2.36,2.85l.17-1.68q.07-1.89,1.38-1.89a1.53,1.53,0,0,1,1.24.49,1.35,1.35,0,0,1,.35,1.14l-.12,1.28c-.19,1.43-.33,2.91-.41,4.44-.08,1.29-.12,3-.12,5.2V574c0,1.46,0,2.54.1,3.24a4,4,0,0,0,.43,1.6,1.25,1.25,0,0,0,1.1.61A1.54,1.54,0,0,1,588.13,579.85Zm-5.55-12.08a8.41,8.41,0,0,0-.85-4.06,5.36,5.36,0,0,0-2.08-2.22,4.92,4.92,0,0,0-2.32-.66,4.76,4.76,0,0,0-3.61,1.53,9.18,9.18,0,0,0-2.12,3.82,16.06,16.06,0,0,0-.67,4.54,14.27,14.27,0,0,0,1.4,6.4A4.8,4.8,0,0,0,577,580a5.38,5.38,0,0,0,4-1.55,6.09,6.09,0,0,0,1.61-4.46Q582.59,571.54,582.58,567.77Z"/><path class="cls-4" d="M595.87,553a3.85,3.85,0,0,1,0-4.54,2.33,2.33,0,0,1,1.87-.89,2.25,2.25,0,0,1,1.82.87,3.86,3.86,0,0,1,0,4.53,2.29,2.29,0,0,1-1.85.92A2.21,2.21,0,0,1,595.87,553Zm0,29a1.68,1.68,0,0,1-.43-1.22l.41-21.67a1.87,1.87,0,0,1,.43-1.33,1.69,1.69,0,0,1,2.32,0,2,2,0,0,1,.43,1.38l-.41,21.62a1.89,1.89,0,0,1-.47,1.25,1.51,1.51,0,0,1-1.12.43A1.49,1.49,0,0,1,595.89,582Z"/><path class="cls-4" d="M623.13,569v11.93c0,1.19-.5,1.79-1.51,1.79S620,582.13,620,581v-12a19.9,19.9,0,0,0-.81-6.61,3,3,0,0,0-2.94-2.11,4.25,4.25,0,0,0-3.66,2.14,14.12,14.12,0,0,0-2,5.61,37.39,37.39,0,0,0-.37,5.76l0,7.55a1.44,1.44,0,0,1-.4,1.1,1.58,1.58,0,0,1-1.1.38,1.62,1.62,0,0,1-1.19-.41,1.45,1.45,0,0,1-.4-1.07c0-3-.06-6.71-.17-11.07q-.12-3.76-.12-6.68a7.16,7.16,0,0,0-.22-2,16.26,16.26,0,0,0-.88-2.07,1.46,1.46,0,0,1-.16-.71,1.91,1.91,0,0,1,1.63-1.69c.35,0,.72.33,1.1,1a12.43,12.43,0,0,1,.83,2,6.74,6.74,0,0,1,.39,2.17v.56a10,10,0,0,1,2.36-4.24,5.75,5.75,0,0,1,4.32-1.68Q623.14,556.8,623.13,569Z"/><path class="cls-4" d="M635.82,573a2.45,2.45,0,0,1-.3-1.33,11.16,11.16,0,0,1,.53-3.52,11.92,11.92,0,0,1,1.28-2.73c.51-.76,1.18-1.69,2-2.78a21.69,21.69,0,0,0,2.34-3.36,7,7,0,0,0,.8-3.37,8.38,8.38,0,0,0-1.59-5.3,5,5,0,0,0-4.16-2,5.87,5.87,0,0,0-4.58,1.6,6.93,6.93,0,0,0-1.45,4.77,4.85,4.85,0,0,0,.75,2.73,2.29,2.29,0,0,0,2,1.15c.9,0,1.35.54,1.35,1.63a1.32,1.32,0,0,1-.39,1,1.41,1.41,0,0,1-1,.36,4,4,0,0,1-2.55-.94,6.66,6.66,0,0,1-1.85-2.53,8.43,8.43,0,0,1-.69-3.42,10,10,0,0,1,2.24-6.86,7.75,7.75,0,0,1,6.11-2.52,7,7,0,0,1,4.42,1.43,9,9,0,0,1,2.83,3.8,13.16,13.16,0,0,1,1,5.12,9.9,9.9,0,0,1-.94,4.52,25.86,25.86,0,0,1-2.81,4.25,24.22,24.22,0,0,0-2.42,3.55,7.25,7.25,0,0,0-.8,3.44,2.18,2.18,0,0,1-.34,1.3,1.07,1.07,0,0,1-.92.49A1,1,0,0,1,635.82,573Zm-.67,8.31a3.11,3.11,0,0,1-.65-2,2.78,2.78,0,0,1,.67-1.86,2,2,0,0,1,1.57-.79,1.91,1.91,0,0,1,1.51.79,2.87,2.87,0,0,1,.65,1.86,3.16,3.16,0,0,1-.63,2,1.89,1.89,0,0,1-1.53.82A2,2,0,0,1,635.15,581.28Z"/></svg>
